<?xml version="1.0" encoding="UTF-8"?>
<svg version="1.1" xmlns="http://www.w3.org/2000/svg" width="474" height="217">
<path d="M0 0 C1.88464966 0.00966797 1.88464966 0.00966797 3.80737305 0.01953125 C21.52842424 0.36264313 36.67415297 4.62871561 51.9375 13.5 C52.52547363 13.82419922 53.11344727 14.14839844 53.71923828 14.48242188 C77.84699541 27.83969873 94.59130198 51.66616624 102.1875 77.8125 C108.85404228 104.81339092 106.21373797 132.66520383 91.91503906 156.86767578 C88.93195984 161.72883446 85.78618714 166.29049844 81.9375 170.5 C80.82812424 169.39062424 79.71953643 168.28045635 78.61328125 167.16796875 C77.39161732 165.95200022 76.15818694 164.7478197 74.91796875 163.55078125 C69.92591774 158.68112729 65.4156417 153.6091588 61.1015625 148.12890625 C59.01621388 145.49598161 59.01621388 145.49598161 56.7109375 143.33984375 C54.7705249 141.45562071 53.22124654 139.88206302 51.9375 137.5 C52.14307308 134.13222927 53.485209 131.50685602 54.9375 128.5 C55.50347548 126.94614004 56.04587624 125.38345796 56.5625 123.8125 C56.80226563 123.12800781 57.04203125 122.44351563 57.2890625 121.73828125 C62.00409745 105.46288951 58.73732881 88.57223773 51.01171875 73.8984375 C42.55972116 60.05053184 29.24184106 51.14312979 13.68359375 46.8828125 C-2.42007461 44.6379199 -18.37594046 46.28710694 -32.0625 55.5 C-34.56487548 57.57286327 -36.94801578 59.70409661 -39.28515625 61.9609375 C-41.0625 63.5 -41.0625 63.5 -43.0625 63.5 C-43.33835937 64.08523437 -43.61421875 64.67046875 -43.8984375 65.2734375 C-45.01327516 67.40584511 -46.26278163 69.19088512 -47.6875 71.125 C-56.37715446 84.10713437 -61.33034518 99.93788339 -67.15234375 114.328125 C-70.50819478 122.61679503 -73.92952056 130.87785977 -77.35913086 139.13623047 C-79.84391985 145.1238956 -82.31794264 151.11535988 -84.76069641 157.12031555 C-85.99491702 160.15408137 -87.2330078 163.18626287 -88.47103882 166.21847534 C-89.06191318 167.66894115 -89.65088262 169.12018482 -90.23770142 170.57229614 C-103.29570229 202.87805261 -103.29570229 202.87805261 -114.16015625 207.75390625 C-122.48443598 211.01866483 -131.01086896 210.00733928 -139.0625 206.5 C-150.0244435 200.91155821 -154.87269677 186.41701348 -160.1875 175.9375 C-160.99299013 174.35977095 -161.79897633 172.78229507 -162.60546875 171.20507812 C-166.25418741 164.06103209 -166.25418741 164.06103209 -168.04742432 160.50021362 C-168.75706841 159.10185506 -169.47821258 157.70929992 -170.20794678 156.32131958 C-170.57486633 155.61466156 -170.94178589 154.90800354 -171.31982422 154.17993164 C-171.65392303 153.54551651 -171.98802185 152.91110138 -172.33224487 152.25746155 C-173.0625 150.5 -173.0625 150.5 -173.0625 147.5 C-173.7225 147.5 -174.3825 147.5 -175.0625 147.5 C-175.17263428 148.20543945 -175.28276855 148.91087891 -175.39624023 149.63769531 C-176.13421205 152.80808063 -177.29048808 155.37442992 -178.72265625 158.296875 C-179.53633667 159.97064209 -179.53633667 159.97064209 -180.36645508 161.67822266 C-180.9467749 162.85690918 -181.52709473 164.0355957 -182.125 165.25 C-183.31975896 167.68910415 -184.51169383 170.12958141 -185.703125 172.5703125 C-185.99661331 173.17011932 -186.29010162 173.76992615 -186.59248352 174.38790894 C-188.62666734 178.55987175 -190.54816913 182.77131886 -192.42895508 187.01391602 C-196.32720071 195.71278826 -200.5566102 203.599814 -209.375 208.0625 C-214.40158137 209.76669088 -219.42775359 209.87619287 -224.6875 209.9375 C-225.48712158 209.94789307 -226.28674316 209.95828613 -227.1105957 209.96899414 C-235.71236909 209.84029152 -241.85428968 207.49815596 -248.18261719 201.59716797 C-251.56660268 197.82204649 -253.8327377 193.52601601 -256.1875 189.0625 C-257.31450253 186.99635629 -258.44347205 184.93128451 -259.57421875 182.8671875 C-260.14833496 181.81112305 -260.72245117 180.75505859 -261.31396484 179.66699219 C-264.10483605 174.61209394 -267.05889121 169.65592307 -270 164.6875 C-276.81018314 153.10525237 -283.15708872 141.29359741 -289.484375 129.44287109 C-295.17210198 118.83645695 -301.09652685 108.38266873 -307.2409668 98.03515625 C-311.46474945 90.88810392 -315.43903102 83.60947927 -319.41796875 76.32421875 C-321.72046946 72.11111471 -324.06923883 67.92637615 -326.4375 63.75 C-353.07786439 16.61235502 -353.07786439 16.61235502 -354.0625 7.5 C-352.0625 4.5 -352.0625 4.5 -350.06958008 3.78271484 C-342.06884765 2.38095895 -334.13547332 2.12764987 -326.03588867 2.12939453 C-323.73608842 2.12497326 -321.43814056 2.08839338 -319.13867188 2.05078125 C-317.65886062 2.04491958 -316.17904042 2.04094584 -314.69921875 2.0390625 C-314.02098557 2.02469147 -313.34275238 2.01032043 -312.64396667 1.99551392 C-306.40677806 2.05503958 -303.03181553 4.77947167 -298.49609375 8.7421875 C-295.50631991 12.13027792 -293.34768243 15.70633715 -291.125 19.625 C-290.72087891 20.32109375 -290.31675781 21.0171875 -289.90039062 21.734375 C-284.29274038 31.4484148 -279.05320103 41.36917258 -273.77301025 51.26330566 C-269.30760379 59.62774945 -264.83410199 67.98431259 -260.1875 76.25 C-255.16358434 85.19730333 -250.38143824 94.27257243 -245.58065796 103.34069824 C-239.17063803 115.44711254 -232.66635207 127.49793014 -226.0625 139.5 C-224.10621573 137.00024577 -222.49909774 134.5993947 -221.15234375 131.7265625 C-220.80671387 130.99453613 -220.46108398 130.26250977 -220.10498047 129.50830078 C-219.74033691 128.72181152 -219.37569336 127.93532227 -219 127.125 C-218.61730957 126.30370605 -218.23461914 125.48241211 -217.84033203 124.63623047 C-217.01672111 122.86518482 -216.19518161 121.09317473 -215.37548828 119.3203125 C-214.00731086 116.38145315 -212.61230733 113.45628421 -211.21484375 110.53125 C-210.28831966 108.56284948 -209.36252286 106.59410644 -208.4375 104.625 C-207.98753662 103.69252441 -207.53757324 102.76004883 -207.07397461 101.79931641 C-206.66542236 100.91937012 -206.25687012 100.03942383 -205.8359375 99.1328125 C-205.46903809 98.35824707 -205.10213867 97.58368164 -204.72412109 96.78564453 C-203.18805954 91.47914702 -206.09699243 87.07363988 -208.52734375 82.4609375 C-209.05075096 81.44968307 -209.05075096 81.44968307 -209.58473206 80.41799927 C-210.71715371 78.2338205 -211.85840126 76.05439409 -213 73.875 C-213.78304941 72.36939917 -214.56559971 70.86353866 -215.34765625 69.35742188 C-217.57776298 65.06732051 -219.81902014 60.78311879 -222.0625 56.5 C-222.87291748 54.94974121 -222.87291748 54.94974121 -223.69970703 53.36816406 C-227.27696976 46.5285077 -230.88177615 39.70402458 -234.5234375 32.8984375 C-246.15373962 11.1377684 -246.15373962 11.1377684 -245.0625 6.5 C-241.89907461 2.80933705 -237.61786477 2.90962863 -233.0625 2.5 C-227.90553487 2.1823885 -222.73781081 2.14635899 -217.57250977 2.0949707 C-215.94241206 2.07334447 -214.3124319 2.03918629 -212.68286133 1.99243164 C-196.03649668 1.52113406 -196.03649668 1.52113406 -189.71264648 6.75463867 C-187.17786635 9.43567776 -185.28435036 12.11802168 -183.5625 15.375 C-183.19995117 16.01848389 -182.83740234 16.66196777 -182.46386719 17.32495117 C-181.70197119 18.68185323 -180.94912048 20.04387108 -180.20507812 21.41064453 C-179.05305924 23.51726368 -177.86813084 25.60181681 -176.671875 27.68359375 C-173.01444453 34.06793703 -169.51371402 40.48419509 -166.29296875 47.1015625 C-164.88482241 49.84633029 -163.33033933 52.47571204 -161.75 55.125 C-159.09446016 59.61392063 -156.669488 64.17818966 -154.3671875 68.85546875 C-150.50610666 76.63649475 -146.56165522 84.37195235 -142.58032227 92.09204102 C-141.49530471 94.19660726 -140.41261621 96.30236063 -139.33007812 98.40820312 C-138.61489682 99.79703647 -137.89940562 101.18571029 -137.18359375 102.57421875 C-136.83847748 103.24379608 -136.49336121 103.91337341 -136.13778687 104.60324097 C-134.44876272 107.86725031 -132.73748001 111.11616201 -130.97705078 114.34228516 C-130.64947281 114.94289261 -130.32189484 115.54350006 -129.98439026 116.16230774 C-129.09309562 117.78879974 -128.19532936 119.41174063 -127.29711914 121.03442383 C-126.0625 123.5 -126.0625 123.5 -126.0625 125.5 C-125.4025 125.5 -124.7425 125.5 -124.0625 125.5 C-123.97492432 124.85772461 -123.88734863 124.21544922 -123.79711914 123.55371094 C-122.78644542 119.35247902 -121.06024957 115.58127426 -119.30859375 111.640625 C-118.92945328 110.77798035 -118.55031281 109.91533569 -118.15968323 109.02655029 C-117.35417934 107.19650876 -116.54625227 105.36753215 -115.73608398 103.53955078 C-114.52369303 100.8034696 -113.31877616 98.06420212 -112.11523438 95.32421875 C-108.3969523 86.88015529 -104.62750072 78.46118713 -100.72265625 70.1015625 C-100.41106064 69.43030334 -100.09946503 68.75904419 -99.77842712 68.06744385 C-92.9359213 53.55116103 -83.46297442 38.72239637 -71.16796875 28.30859375 C-69.86746195 27.19146082 -68.5924082 26.04287625 -67.36328125 24.84765625 C-49.68492292 7.96383087 -23.98394838 -0.13060485 0 0 Z " fill="#9042EC" transform="translate(360.0625,1.5)"/>
<path d="M0 0 C2.60786412 2.28554384 3.62870826 4.24190701 4.75 7.5 C11.13952036 24.14190664 22.79689892 34.09764072 38.8125 41.375 C50.484196 45.62440389 62.84713127 45.29211535 75 44 C72.95953274 40.36822493 70.71381615 37.41731552 67.875 34.375 C64.50588324 30.68554099 61.20686822 26.95684893 58 23.125 C57.2575 22.24070313 56.515 21.35640625 55.75 20.4453125 C54.08291151 18.11585402 53.57710531 16.72898674 53 14 C58.72913803 13.92565008 64.45799301 13.87130328 70.1875 13.83520508 C72.13514094 13.82015101 74.08274816 13.7997032 76.03027344 13.77368164 C78.83537128 13.73714947 81.64001954 13.72023967 84.4453125 13.70703125 C85.31116974 13.69154739 86.17702698 13.67606354 87.06912231 13.66011047 C93.01253479 13.65846891 97.1629049 14.57466164 101.82348633 18.55883789 C102.32130615 19.10789795 102.81912598 19.65695801 103.33203125 20.22265625 C103.89849365 20.83874756 104.46495605 21.45483887 105.04858398 22.08959961 C105.63067627 22.74065674 106.21276855 23.39171387 106.8125 24.0625 C107.42488525 24.7335376 108.03727051 25.4045752 108.66821289 26.09594727 C110.45393354 28.05650357 112.22786513 30.02716801 114 32 C114.87914062 32.96679688 115.75828125 33.93359375 116.6640625 34.9296875 C119.31393271 37.85274021 121.9486976 40.78654643 124.53222656 43.76855469 C128.86011891 48.75626123 133.32830919 53.58667377 137.875 58.375 C147.2250118 68.27850315 147.2250118 68.27850315 151.375 72.8125 C152.04273438 73.54082031 152.71046875 74.26914063 153.3984375 75.01953125 C154.94931204 76.93732001 156.00032743 78.75326115 157 81 C157.66 81 158.32 81 159 81 C162.04395069 83.73955562 164.44396229 86.18063472 166 90 C161.08742585 90.96818933 156.36803724 91.190773 151.3828125 91.23828125 C150.56682587 91.246353 149.75083923 91.25442474 148.91012573 91.26274109 C147.19059329 91.27651403 145.4710343 91.28726625 143.75146484 91.29516602 C142.00398673 91.30669892 140.2565442 91.3271715 138.50927734 91.35668945 C135.96688222 91.39956572 133.42552517 91.41555905 130.8828125 91.42578125 C130.1117215 91.44328934 129.34063049 91.46079742 128.5461731 91.47883606 C121.84988325 91.45239172 116.62427717 89.42922954 111.6875 84.859375 C111.130625 84.16328125 110.57375 83.4671875 110 82.75 C109.4225 82.04359375 108.845 81.3371875 108.25 80.609375 C107.63125 79.81273437 107.63125 79.81273437 107 79 C105.29457031 79.70576172 105.29457031 79.70576172 103.5546875 80.42578125 C94.10353811 84.26421847 85.09910198 87.33238078 75 89 C73.700625 89.226875 72.40125 89.45375 71.0625 89.6875 C44.60637426 92.39516319 17.87349301 85.05813921 -3.03515625 68.56640625 C-6.5057149 65.56224678 -9.84718954 62.46249917 -13.125 59.25 C-13.6821167 58.70706299 -14.2392334 58.16412598 -14.81323242 57.60473633 C-20.31543035 52.03407117 -20.31543035 52.03407117 -21 48 C-20.10281522 45.30225817 -19.1356439 43.02273315 -17.875 40.5 C-17.1269564 38.92011696 -16.38383209 37.33789928 -15.64453125 35.75390625 C-15.22768066 34.8633252 -14.81083008 33.97274414 -14.38134766 33.05517578 C-11.31275592 26.26826221 -8.56231611 19.33971339 -5.74920654 12.44384766 C-4.98186448 10.56464262 -4.21169491 8.6865929 -3.44140625 6.80859375 C-2.99482666 5.71345459 -2.54824707 4.61831543 -2.08813477 3.48999023 C-1 1 -1 1 0 0 Z " fill="#8B38D8" transform="translate(301,122)"/>
<path d="M0 0 C1.63009771 -0.02162623 3.26007787 -0.05578441 4.88964844 -0.10253906 C21.53601308 -0.57383664 21.53601308 -0.57383664 27.85986328 4.65966797 C30.39464342 7.34070706 32.28815941 10.02305098 34.01000977 13.2800293 C34.37255859 13.92351318 34.73510742 14.56699707 35.10864258 15.22998047 C35.87053858 16.58688252 36.62338929 17.94890038 37.36743164 19.31567383 C38.51945053 21.42229298 39.70437892 23.50684611 40.90063477 25.58862305 C44.63747427 32.11159483 48.24514339 38.66521955 51.51782227 45.4362793 C52.55006146 47.5744345 52.55006146 47.5744345 54.26000977 50.0925293 C55.89994119 53.12640244 56.08282231 56.00730685 56.51000977 59.4050293 C55.02500977 59.46110352 55.02500977 59.46110352 53.51000977 59.51831055 C42.50827034 60.02136665 35.12844908 60.83626692 27.33422852 69.15112305 C23.86201013 73.44120872 21.42806931 78.10988042 19.38500977 83.2175293 C18.42121916 85.62700581 17.14315256 87.40071768 15.51000977 89.4050293 C12.01325691 86.27254153 10.08472209 83.07604639 7.97094727 78.90112305 C7.64849533 78.27002121 7.3260434 77.63891937 6.99382019 76.98869324 C5.95056663 74.9434403 4.91789831 72.89303306 3.88500977 70.8425293 C3.16445525 69.42655327 2.44301468 68.01102781 1.72070312 66.59594727 C0.29453875 63.80135211 -1.12875538 61.00532715 -2.55004883 58.20825195 C-4.96707925 53.45990976 -7.43648492 48.73993459 -9.92749023 44.0300293 C-10.31453125 43.29598877 -10.70157227 42.56194824 -11.1003418 41.80566406 C-13.04084232 38.129733 -14.99367137 34.46060101 -16.95483398 30.7956543 C-28.58149038 9.0439049 -28.58149038 9.0439049 -27.48999023 4.4050293 C-22.09919856 -1.88422766 -7.69697845 0.07657531 0 0 Z " fill="#CB67F8" transform="translate(142.489990234375,3.594970703125)"/>
<path d="M0 0 C2.64446057 2.30924726 3.66720169 4.33030624 4.8125 7.625 C6.57869496 12.31194538 8.90519885 16.13591919 11.828125 20.1875 C13 22 13 22 13 24 C11 23 11 23 9 22 C8.278125 21.731875 7.55625 21.46375 6.8125 21.1875 C6.214375 20.795625 5.61625 20.40375 5 20 C4.855625 19.175 4.71125 18.35 4.5625 17.5 C4.376875 16.675 4.19125 15.85 4 15 C1.52363988 13.62533375 1.52363988 13.62533375 -1 13 C-2.20628008 15.33214148 -3.1654738 17.49642139 -4 20 C-4.66 20 -5.32 20 -6 20 C-6.25523437 21.26457031 -6.25523437 21.26457031 -6.515625 22.5546875 C-6.75796875 23.65039062 -7.0003125 24.74609375 -7.25 25.875 C-7.48203125 26.96554688 -7.7140625 28.05609375 -7.953125 29.1796875 C-9 32 -9 32 -11.109375 33.3828125 C-11.73328125 33.58648437 -12.3571875 33.79015625 -13 34 C-12.95875 35.093125 -12.9175 36.18625 -12.875 37.3125 C-13 41 -13 41 -15 44 C-14.34 44 -13.68 44 -13 44 C-14.75 47.875 -14.75 47.875 -17 49 C-17 49.66 -17 50.32 -17 51 C-16.34 51 -15.68 51 -15 51 C-14.34 52.65 -13.68 54.3 -13 56 C-11.68 56 -10.36 56 -9 56 C-8.87625 56.928125 -8.87625 56.928125 -8.75 57.875 C-8.5025 58.57625 -8.255 59.2775 -8 60 C-7.3915625 60.2784375 -6.783125 60.556875 -6.15625 60.84375 C-3.40507352 62.31901855 -2.40073893 63.99882444 -0.75 66.625 C-0.22921875 67.44226563 0.2915625 68.25953125 0.828125 69.1015625 C1.21484375 69.72804688 1.6015625 70.35453125 2 71 C-6.40817417 67.15785419 -15.56467732 58.44849565 -20.453125 50.6953125 C-21.26253738 46.70606577 -19.62120886 43.9944198 -17.875 40.5 C-17.1269564 38.92011696 -16.38383209 37.33789928 -15.64453125 35.75390625 C-15.22768066 34.8633252 -14.81083008 33.97274414 -14.38134766 33.05517578 C-11.31275592 26.26826221 -8.56231611 19.33971339 -5.74920654 12.44384766 C-4.98186448 10.56464262 -4.21169491 8.6865929 -3.44140625 6.80859375 C-2.99482666 5.71345459 -2.54824707 4.61831543 -2.08813477 3.48999023 C-1 1 -1 1 0 0 Z " fill="#3E1581" transform="translate(301,122)"/>
<path d="M0 0 C1 2 1 2 0.27832031 4.38476562 C-0.11774414 5.38185547 -0.51380859 6.37894531 -0.921875 7.40625 C-1.36490967 8.52974854 -1.80794434 9.65324707 -2.2644043 10.81079102 C-2.75465088 12.02822998 -3.24489746 13.24566895 -3.75 14.5 C-4.25398349 15.76541567 -4.75764154 17.030961 -5.26098633 18.29663086 C-9.91539465 29.95486808 -14.80372014 41.51314853 -19.74511719 53.05224609 C-20.9308303 55.83751848 -22.0987702 58.62932077 -23.2578125 61.42578125 C-33.4873135 86.10421429 -33.4873135 86.10421429 -40 93 C-40.66 92.67 -41.32 92.34 -42 92 C-41.319375 91.4121875 -41.319375 91.4121875 -40.625 90.8125 C-38.72357081 88.69167513 -37.93795972 86.66957765 -37 84 C-36.34 84 -35.68 84 -35 84 C-35 82.68 -35 81.36 -35 80 C-34.34 80 -33.68 80 -33 80 C-33 78.02 -33 76.04 -33 74 C-32.34 74 -31.68 74 -31 74 C-30.87625 72.9275 -30.7525 71.855 -30.625 70.75 C-30 67 -30 67 -28.9375 64.9375 C-27.6410943 62.25826155 -27.86673646 59.93179788 -28 57 C-27.34 57 -26.68 57 -26 57 C-25.67 56.34 -25.34 55.68 -25 55 C-24.34 55 -23.68 55 -23 55 C-23.33 52.36 -23.66 49.72 -24 47 C-23.34 47 -22.68 47 -22 47 C-22 45.02 -22 43.04 -22 41 C-21.39671875 40.814375 -20.7934375 40.62875 -20.171875 40.4375 C-17.01233449 38.34629333 -16.35402605 35.45789292 -15.25 32 C-15.02957031 31.35804688 -14.80914062 30.71609375 -14.58203125 30.0546875 C-13.38907475 26.60290367 -13.38907475 26.60290367 -13 23 C-12.34 22.67 -11.68 22.34 -11 22 C-9.86649466 19.98330173 -9.86649466 19.98330173 -9 18 C-8.67 18.33 -8.34 18.66 -8 19 C-7.89042969 18.30132812 -7.78085937 17.60265625 -7.66796875 16.8828125 C-7.50941406 15.97273437 -7.35085938 15.06265625 -7.1875 14.125 C-7.03667969 13.22007813 -6.88585937 12.31515625 -6.73046875 11.3828125 C-6 9 -6 9 -3 7 C-2.63371323 5.00577205 -2.29868656 3.00546689 -2 1 C-1.34 0.67 -0.68 0.34 0 0 Z " fill="#7128BF" transform="translate(292,113)"/>
<path d="M0 0 C2.475 0.495 2.475 0.495 5 1 C5.48108275 2.41601714 5.95978141 3.83284437 6.4375 5.25 C6.83775391 6.43335938 6.83775391 6.43335938 7.24609375 7.640625 C8 10 8 10 8.41015625 12.234375 C8.60480469 12.81703125 8.79945313 13.3996875 9 14 C9.99 14.33 10.98 14.66 12 15 C12 17.31 12 19.62 12 22 C12.66 22 13.32 22 14 22 C14.226875 23.27875 14.45375 24.5575 14.6875 25.875 C15.16100084 28.06932132 15.16100084 28.06932132 16 30 C18.48313064 31.59688639 18.48313064 31.59688639 21 32 C21.12375 33.134375 21.2475 34.26875 21.375 35.4375 C21.58125 36.613125 21.7875 37.78875 22 39 C22.66 39.33 23.32 39.66 24 40 C27.1758882 44.68821592 29.50755319 49.92644226 32 55 C32.66 55 33.32 55 34 55 C34 55.99 34 56.98 34 58 C34.94875 57.938125 35.8975 57.87625 36.875 57.8125 C37.90625 57.874375 38.9375 57.93625 40 58 C40.66 58.99 41.32 59.98 42 61 C49.50845026 63.42920449 58.31274009 61.79133558 66 61 C62.39925899 65.03150451 57.97565213 65.69453483 52.79296875 66.2265625 C44.75588221 66.53622258 37.1844421 64.22241777 31 59 C24.65412196 51.06612317 20.4452603 41.44895393 15.875 32.4375 C15.06950987 30.85977095 14.26352367 29.28229507 13.45703125 27.70507812 C9.80831259 20.56103209 9.80831259 20.56103209 8.01507568 17.00021362 C7.30543159 15.60185506 6.58428742 14.20929992 5.85455322 12.82131958 C5.48763367 12.11466156 5.12071411 11.40800354 4.74267578 10.67993164 C4.40857697 10.04551651 4.07447815 9.41110138 3.73025513 8.75746155 C3 7 3 7 3 4 C2.34 4 1.68 4 1 4 C0.67 4.99 0.34 5.98 0 7 C0 4.69 0 2.38 0 0 Z M21 30 C21.99 30.495 21.99 30.495 23 31 C22.01 31.495 22.01 31.495 21 32 C21 31.34 21 30.68 21 30 Z " fill="#4F1B9B" transform="translate(184,145)"/>
<path d="M0 0 C1.63009771 -0.02162623 3.26007787 -0.05578441 4.88964844 -0.10253906 C21.18247024 -0.56382701 21.18247024 -0.56382701 27.98095703 4.61962891 C29.79289155 6.73533657 30.61680923 8.78235143 31.51000977 11.4050293 C28.51000977 11.4050293 28.51000977 11.4050293 26.01000977 8.9675293 C25.18500977 8.1219043 24.36000977 7.2762793 23.51000977 6.4050293 C22.52000977 6.0750293 21.53000977 5.7450293 20.51000977 5.4050293 C20.51000977 4.7450293 20.51000977 4.0850293 20.51000977 3.4050293 C15.82843076 3.52298855 11.14707689 3.64721478 6.46582031 3.77734375 C4.87211676 3.82075075 3.27836496 3.86242148 1.68457031 3.90234375 C-0.60162931 3.95990737 -2.88758473 4.02364079 -5.17358398 4.08862305 C-6.24859413 4.11369179 -6.24859413 4.11369179 -7.34532166 4.13926697 C-10.70526405 3.95521584 -10.70526405 3.95521584 -13.48999023 5.4050293 C-15.78580804 5.476914 -18.06516092 5.40149361 -20.36108398 5.3425293 C-22.54501239 5.25721792 -22.54501239 5.25721792 -24.48999023 6.4050293 C-23.35807389 11.68730555 -21.88881479 15.95407344 -19.19702148 20.64331055 C-18.48999023 22.4050293 -18.48999023 22.4050293 -19.48999023 25.4050293 C-20.83587349 22.84845195 -22.16674351 20.28579025 -23.48999023 17.7175293 C-23.87155273 16.99629883 -24.25311523 16.27506836 -24.64624023 15.53198242 C-28.18276855 8.61680653 -28.18276855 8.61680653 -27.48999023 4.4050293 C-22.09919856 -1.88422766 -7.69697845 0.07657531 0 0 Z " fill="#7D4293" transform="translate(142.489990234375,3.594970703125)"/>
<path d="M0 0 C5.72913803 -0.07434992 11.45799301 -0.12869672 17.1875 -0.16479492 C19.13514094 -0.17984899 21.08274816 -0.2002968 23.03027344 -0.22631836 C25.83537128 -0.26285053 28.64001954 -0.27976033 31.4453125 -0.29296875 C32.74409836 -0.31619453 32.74409836 -0.31619453 34.06912231 -0.33988953 C40.38054063 -0.34163273 44.59968802 0.78918634 49.375 5.1875 C49.91125 5.785625 50.4475 6.38375 51 7 C50.67 7.66 50.34 8.32 50 9 C47.525 8.505 47.525 8.505 45 8 C45 7.34 45 6.68 45 6 C42.69 5.67 40.38 5.34 38 5 C37.505 3.515 37.505 3.515 37 2 C26.44 2 15.88 2 5 2 C5.33 3.65 5.66 5.3 6 7 C6.598125 7.28875 7.19625 7.5775 7.8125 7.875 C11.33753368 9.68787446 12.299453 12.47293956 14 16 C13.67 16.66 13.34 17.32 13 18 C11.58155991 16.43910974 10.16532975 14.8762111 8.75 13.3125 C7.96109375 12.44238281 7.1721875 11.57226562 6.359375 10.67578125 C0 3.46357616 0 3.46357616 0 0 Z " fill="#4C1C80" transform="translate(354,136)"/>
<path d="M0 0 C0.73764587 -0.00570007 1.47529175 -0.01140015 2.23529053 -0.01727295 C3.78152051 -0.02665397 5.32776987 -0.03322919 6.87402344 -0.03710938 C9.24188192 -0.04690606 11.60890373 -0.07802826 13.9765625 -0.109375 C15.48436989 -0.1158978 16.99218342 -0.1211511 18.5 -0.125 C19.20626526 -0.1373468 19.91253052 -0.1496936 20.64019775 -0.16241455 C23.5369318 -0.14920041 25.51545201 -0.11453251 27.95214844 1.53613281 C28.984375 3.203125 28.984375 3.203125 28.984375 6.203125 C25.109375 5.328125 25.109375 5.328125 23.984375 4.203125 C22.60437563 4.10447384 21.21945701 4.07233477 19.8359375 4.0703125 C18.57523438 4.06837891 18.57523438 4.06837891 17.2890625 4.06640625 C16.40476563 4.07027344 15.52046875 4.07414063 14.609375 4.078125 C13.7328125 4.07425781 12.85625 4.07039062 11.953125 4.06640625 C10.68855469 4.06833984 10.68855469 4.06833984 9.3984375 4.0703125 C8.6245166 4.07144043 7.8505957 4.07256836 7.05322266 4.07373047 C4.78610926 4.12677353 4.78610926 4.12677353 1.984375 5.203125 C0.994375 4.873125 0.004375 4.543125 -1.015625 4.203125 C-1.77875 4.368125 -2.541875 4.533125 -3.328125 4.703125 C-6.47803037 5.28915391 -8.90083122 4.85505858 -12.015625 4.203125 C-12.345625 5.193125 -12.675625 6.183125 -13.015625 7.203125 C-13.015625 6.543125 -13.015625 5.883125 -13.015625 5.203125 C-14.995625 6.523125 -16.975625 7.843125 -19.015625 9.203125 C-19.015625 7.553125 -19.015625 5.903125 -19.015625 4.203125 C-17.695625 3.873125 -16.375625 3.543125 -15.015625 3.203125 C-15.015625 2.543125 -15.015625 1.883125 -15.015625 1.203125 C-9.9908399 0.38665878 -5.09399999 0.03100811 0 0 Z " fill="#86489E" transform="translate(27.015625,3.796875)"/>
<path d="M0 0 C2.91988191 3.44442811 5.07679473 6.80683135 7.05859375 10.859375 C7.60966797 11.97570312 8.16074219 13.09203125 8.72851562 14.2421875 C9.57446289 15.97855469 9.57446289 15.97855469 10.4375 17.75 C11.55926015 20.03740965 12.68292491 22.32388635 13.80859375 24.609375 C14.34468262 25.69798828 14.88077148 26.78660156 15.43310547 27.90820312 C17.22345885 31.44092909 19.13853329 34.88315067 21.13696289 38.30175781 C22 40 22 40 22 42 C22.66 42 23.32 42 24 42 C24.0825 41.360625 24.165 40.72125 24.25 40.0625 C25.29520372 35.79458483 27.14091826 31.96892333 29 28 C29.66 28.33 30.32 28.66 31 29 C30.33791903 34.08912984 29.78036629 37.97320226 26.625 42.125 C24 44 24 44 20 44 C19.73445313 43.43410156 19.46890625 42.86820313 19.1953125 42.28515625 C18.84210938 41.55167969 18.48890625 40.81820312 18.125 40.0625 C17.77695313 39.33160156 17.42890625 38.60070312 17.0703125 37.84765625 C16.1315023 35.83667541 16.1315023 35.83667541 14 35 C14 33.68 14 32.36 14 31 C13.34 31 12.68 31 12 31 C11.81824219 30.41992188 11.63648438 29.83984375 11.44921875 29.2421875 C9.16804942 22.15301513 6.14476252 16.06786242 2.0859375 9.83203125 C0.11105713 6.50030862 -0.10228111 3.78440097 0 0 Z " fill="#4D1A96" transform="translate(212,85)"/>
<path d="M0 0 C0.33 0 0.66 0 1 0 C1.28728755 4.97965084 1.10990769 7.1724213 -2 11 C-2.73260159 13.31347872 -3.411438 15.645752 -4 18 C-4.66 18 -5.32 18 -6 18 C-6.10957031 18.65226562 -6.21914062 19.30453125 -6.33203125 19.9765625 C-7.25823612 25.08198449 -8.20929649 29.53487439 -11 34 C-11.99 34.66 -12.98 35.32 -14 36 C-14.33 36.99 -14.66 37.98 -15 39 C-16.62332967 40.38576923 -18.28724465 41.72641268 -20 43 C-17.71381936 35.59897455 -14.71030311 28.70187828 -11.4375 21.6875 C-10.94314453 20.61693359 -10.44878906 19.54636719 -9.93945312 18.44335938 C-4.09355458 5.81020651 -4.09355458 5.81020651 0 0 Z " fill="#5921A8" transform="translate(162,86)"/>
<path d="M0 0 C0.66 0 1.32 0 2 0 C2.433125 0.9590625 2.433125 0.9590625 2.875 1.9375 C3.82823451 4.15206079 3.82823451 4.15206079 6 5 C6 6.32 6 7.64 6 9 C6.66 9 7.32 9 8 9 C8.268125 9.763125 8.53625 10.52625 8.8125 11.3125 C9.9635558 13.91752101 10.80453756 15.24363005 13 17 C13.99 17.33 14.98 17.66 16 18 C16 18.66 16 19.32 16 20 C16.66 20 17.32 20 18 20 C18.33 20.66 18.66 21.32 19 22 C20.32 22 21.64 22 23 22 C23 22.66 23 23.32 23 24 C26.89581756 24.02911003 30.791607 24.04683587 34.6875 24.0625 C36.34168945 24.07506836 36.34168945 24.07506836 38.02929688 24.08789062 C39.09599609 24.09111328 40.16269531 24.09433594 41.26171875 24.09765625 C42.24100342 24.10289307 43.22028809 24.10812988 44.22924805 24.11352539 C46.92469572 24.00308543 49.37545639 23.60534166 52 23 C46.5812078 27.45115073 41.49935184 27.20840153 34.75 27.25 C33.51830078 27.2809375 33.51830078 27.2809375 32.26171875 27.3125 C23.95823754 27.36513696 17.30147991 25.1975293 11.09765625 19.51171875 C7.53743125 15.24873053 0 5.66817732 0 0 Z " fill="#542699" transform="translate(101,184)"/>
<path d="M0 0 C3.78520613 0.54074373 5.59177555 2.07572746 8 5 C8 5.99 8 6.98 8 8 C8.928125 8.226875 9.85625 8.45375 10.8125 8.6875 C14 10 14 10 17 15 C2.81 15 -11.38 15 -26 15 C-25.67 14.01 -25.34 13.02 -25 12 C-24.01 12.33 -23.02 12.66 -22 13 C-19.8546535 13.04570645 -17.70799205 13.03826965 -15.5625 13 C-8.98514617 12.94524575 -2.5399396 13.32923696 4 14 C5.11172134 8.98431857 5.11172134 8.98431857 3.6875 4.1875 C2.03765823 1.95234401 2.03765823 1.95234401 0 0 Z " fill="#BF66E2" transform="translate(448,196)"/>
<path d="M0 0 C0.99 0 1.98 0 3 0 C2.29960447 5.0245766 0.29322114 9.43625452 -1.6875 14.0625 C-2.04690674 14.90578857 -2.40631348 15.74907715 -2.77661133 16.61791992 C-10.92755004 35.5703471 -10.92755004 35.5703471 -17 42 C-17.66 41.67 -18.32 41.34 -19 41 C-18.319375 40.4121875 -18.319375 40.4121875 -17.625 39.8125 C-15.72357081 37.69167513 -14.93795972 35.66957765 -14 33 C-13.34 33 -12.68 33 -12 33 C-12 31.68 -12 30.36 -12 29 C-11.34 29 -10.68 29 -10 29 C-10 27.02 -10 25.04 -10 23 C-9.34 23 -8.68 23 -8 23 C-7.87625 21.9275 -7.7525 20.855 -7.625 19.75 C-7 16 -7 16 -5.9375 13.9375 C-4.6410943 11.25826155 -4.86673646 8.93179788 -5 6 C-4.34 6 -3.68 6 -3 6 C-2.67 5.34 -2.34 4.68 -2 4 C-1.34 4 -0.68 4 0 4 C0 2.68 0 1.36 0 0 Z " fill="#581C99" transform="translate(269,164)"/>
<path d="M0 0 C0.66 0.33 1.32 0.66 2 1 C1.34 2.65 0.68 4.3 0 6 C0.66 6 1.32 6 2 6 C0.25 9.875 0.25 9.875 -2 11 C-2 11.66 -2 12.32 -2 13 C-1.34 13 -0.68 13 0 13 C0.66 14.65 1.32 16.3 2 18 C3.32 18 4.64 18 6 18 C6.12375 18.928125 6.12375 18.928125 6.25 19.875 C6.4975 20.57625 6.745 21.2775 7 22 C7.6084375 22.2784375 8.216875 22.556875 8.84375 22.84375 C11.59492648 24.31901855 12.59926107 25.99882444 14.25 28.625 C14.77078125 29.44226563 15.2915625 30.25953125 15.828125 31.1015625 C16.21484375 31.72804687 16.6015625 32.35453125 17 33 C8.94194986 29.31784464 -1.611941 20.26559594 -5.2578125 12.2265625 C-5.50273437 11.49179688 -5.74765625 10.75703125 -6 10 C-5.566875 9.649375 -5.13375 9.29875 -4.6875 8.9375 C-2.31641544 6.21514365 -1.3283165 3.35241784 0 0 Z " fill="#501B91" transform="translate(286,160)"/>
<path d="M0 0 C1.21236328 0.12568359 1.21236328 0.12568359 2.44921875 0.25390625 C3.51785156 0.35574219 4.58648437 0.45757812 5.6875 0.5625 C6.74324219 0.66691406 7.79898437 0.77132812 8.88671875 0.87890625 C11.81426086 0.99277552 14.17131144 0.70848415 17 0 C16.67 0.99 16.34 1.98 16 3 C23.85933233 5.10380387 31.45160037 5.42585771 39.5625 5.625 C40.85736328 5.66367188 42.15222656 5.70234375 43.48632812 5.7421875 C46.65741576 5.83579894 49.82850755 5.92153403 53 6 C53 6.33 53 6.66 53 7 C34.5991028 10.00422811 17.38722224 6.91617172 0 1 C0 0.67 0 0.34 0 0 Z " fill="#431665" transform="translate(323,204)"/>
<path d="M0 0 C1.1700097 3.91736581 0.69584017 6.97959015 0 11 C0.66 11.33 1.32 11.66 2 12 C2 12.99 2 13.98 2 15 C-1.3 15.33 -4.6 15.66 -8 16 C-8.66 14.68 -9.32 13.36 -10 12 C-10.99 11.34 -11.98 10.68 -13 10 C-13.51171875 7.8359375 -13.51171875 7.8359375 -13.6875 5.375 C-13.75324219 4.55773437 -13.81898437 3.74046875 -13.88671875 2.8984375 C-13.92410156 2.27195313 -13.96148437 1.64546875 -14 1 C-11.23455278 4.45680903 -9.15078722 8.14341602 -7 12 C-3.95950199 8.35140239 -2.03481238 4.2555467 0 0 Z " fill="#7830DD" transform="translate(141,129)"/>
<path d="M0 0 C0.66 0.33 1.32 0.66 2 1 C2 1.99 2 2.98 2 4 C2.66 4 3.32 4 4 4 C5.1257469 6.08293277 6.25062083 8.16632908 7.375 10.25 C8.00148438 11.41015625 8.62796875 12.5703125 9.2734375 13.765625 C10.55285735 16.16236626 11.80459113 18.56088291 13 21 C11.66666667 20.33333333 10.33333333 19.66666667 9 19 C8.278125 18.731875 7.55625 18.46375 6.8125 18.1875 C6.214375 17.795625 5.61625 17.40375 5 17 C4.855625 16.175 4.71125 15.35 4.5625 14.5 C4.376875 13.675 4.19125 12.85 4 12 C1.63276087 10.51953703 1.63276087 10.51953703 -1 10 C-1.99 10.495 -1.99 10.495 -3 11 C-2.53199289 6.94393835 -2.12046792 3.53411321 0 0 Z " fill="#4F1CA0" transform="translate(301,125)"/>
<path d="M0 0 C2.475 0.495 2.475 0.495 5 1 C5.48108275 2.41601714 5.95978141 3.83284437 6.4375 5.25 C6.83775391 6.43335938 6.83775391 6.43335938 7.24609375 7.640625 C8 10 8 10 8.41015625 12.234375 C8.60480469 12.81703125 8.79945313 13.3996875 9 14 C9.99 14.33 10.98 14.66 12 15 C12 17.31 12 19.62 12 22 C12.66 22 13.32 22 14 22 C14.69906942 23.59915881 15.38389468 25.20455045 16.0625 26.8125 C16.44535156 27.70582031 16.82820313 28.59914062 17.22265625 29.51953125 C18 32 18 32 17 35 C16.68248779 34.3294458 16.36497559 33.6588916 16.0378418 32.96801758 C14.59036045 29.91492223 13.13897093 26.86370055 11.6875 23.8125 C11.18798828 22.75740234 10.68847656 21.70230469 10.17382812 20.61523438 C9.68720703 19.59365234 9.20058594 18.57207031 8.69921875 17.51953125 C8.25408936 16.58214111 7.80895996 15.64475098 7.3503418 14.67895508 C6.03049113 11.95642862 6.03049113 11.95642862 4.33129883 9.3425293 C3 7 3 7 3 4 C2.34 4 1.68 4 1 4 C0.67 4.99 0.34 5.98 0 7 C0 4.69 0 2.38 0 0 Z " fill="#471688" transform="translate(184,145)"/>
<path d="M0 0 C1.98 0.99 1.98 0.99 4 2 C4 3.32 4 4.64 4 6 C4.66 6 5.32 6 6 6 C6 7.32 6 8.64 6 10 C6.66 10 7.32 10 8 10 C8.33 11.98 8.66 13.96 9 16 C9.99 16 10.98 16 12 16 C12.12375 16.639375 12.2475 17.27875 12.375 17.9375 C12.58125 18.618125 12.7875 19.29875 13 20 C13.66 20.33 14.32 20.66 15 21 C16.03291676 22.98320018 17.0337499 24.98347806 18 27 C18.33 27.33 18.66 27.66 19 28 C19.04063832 29.66617115 19.042721 31.33388095 19 33 C19.66 33.33 20.32 33.66 21 34 C20.01 34 19.02 34 18 34 C15.93693624 30.35448541 13.87465341 26.70852961 11.8125 23.0625 C11.23435547 22.04091797 10.65621094 21.01933594 10.06054688 19.96679688 C8.91582054 17.9425068 7.77273111 15.91729011 6.63134766 13.89111328 C5.57943147 12.0268823 4.52220321 10.16563393 3.45849609 8.30810547 C3.00168457 7.5038916 2.54487305 6.69967773 2.07421875 5.87109375 C1.67162842 5.16782959 1.26903809 4.46456543 0.85424805 3.73999023 C0 2 0 2 0 0 Z " fill="#944EBA" transform="translate(39,73)"/>
<path d="M0 0 C-0.99 0 -1.98 0 -3 0 C-3 0.66 -3 1.32 -3 2 C-8.86590564 4.45924567 -14.73550972 6.91020791 -20.625 9.3125 C-21.42164063 9.63863281 -22.21828125 9.96476563 -23.0390625 10.30078125 C-25 11 -25 11 -27 11 C-26.9453125 9.1953125 -26.9453125 9.1953125 -26 7 C-23.59687866 5.74750035 -21.40319896 4.78688856 -18.875 3.875 C-17.89660156 3.49794922 -17.89660156 3.49794922 -16.8984375 3.11328125 C-4.22442133 -1.68976853 -4.22442133 -1.68976853 0 0 Z " fill="#703FA8" transform="translate(340,5)"/>
<path d="M0 0 C7.76029102 11.64043653 6.54420412 29.94631952 5.1875 43.375 C5.06435425 44.59727295 5.06435425 44.59727295 4.9387207 45.84423828 C4.50140304 49.56597329 4.10935261 51.83597109 2 55 C1.97311849 53.35425434 1.95365877 51.70838587 1.9375 50.0625 C1.92589844 49.14597656 1.91429687 48.22945312 1.90234375 47.28515625 C2 45 2 45 3 44 C3.96825863 31.60482252 3.41583869 19.15840312 0.65625 7.046875 C0 4 0 4 0 0 Z " fill="#38196F" transform="translate(460,76)"/>
<path d="M0 0 C2 0 2 0 4.0625 1.75 C6.01396041 4.01621209 6.41372742 5.1663492 7 8 C7.66 8.33 8.32 8.66 9 9 C14.87370548 21.20462343 17.20973811 36.62271424 15 50 C14.34 50.99 13.68 51.98 13 53 C13.01571045 52.39639648 13.0314209 51.79279297 13.04760742 51.17089844 C13.50144737 31.079385 10.55176592 17.21095966 0 0 Z " fill="#391675" transform="translate(406,67)"/>
<path d="M0 0 C6.60880277 0.09381581 9.92925647 4.08420864 14.375 8.4375 C15.11105469 9.13166016 15.84710938 9.82582031 16.60546875 10.54101562 C20.53703358 14.30846133 20.53703358 14.30846133 22 16 C22 16.66 22 17.32 22 18 C22.66 18 23.32 18 24 18 C24 18.66 24 19.32 24 20 C22.1875 19.8125 22.1875 19.8125 20 19 C18.375 16.5625 18.375 16.5625 17 14 C14.8614515 11.8614515 13.86724686 11.57344937 11 11 C11 10.34 11 9.68 11 9 C10.01 8.67 9.02 8.34 8 8 C7.67 7.34 7.34 6.68 7 6 C5.515 5.566875 5.515 5.566875 4 5.125 C3.01 4.75375 2.02 4.3825 1 4 C0.125 1.875 0.125 1.875 0 0 Z " fill="#924AC0" transform="translate(436,185)"/>
<path d="M0 0 C2.30859375 -0.26953125 2.30859375 -0.26953125 5 0 C6.66015625 1.86328125 6.66015625 1.86328125 8.0625 4.3125 C9.61814577 6.98855546 10.67539296 8.76133544 13.18359375 10.60546875 C13.78300781 11.06566406 14.38242187 11.52585938 15 12 C15 12.99 15 13.98 15 15 C15.66 14.67 16.32 14.34 17 14 C17.33 15.98 17.66 17.96 18 20 C11.2252259 14.52252307 3.5414849 8.13229866 0 0 Z " fill="#5A25B8" transform="translate(419,146)"/>
<path d="M0 0 C1 2 1 2 0.15136719 4.6862793 C-0.29561523 5.80429932 -0.74259766 6.92231934 -1.203125 8.07421875 C-1.68910156 9.29947266 -2.17507813 10.52472656 -2.67578125 11.78710938 C-3.20042512 13.08727821 -3.7251655 14.38740811 -4.25 15.6875 C-4.75979999 16.96782626 -5.26892255 18.24842247 -5.77734375 19.52929688 C-8.10996741 25.38648561 -10.5013095 31.2117954 -13 37 C-13.6875 35.4375 -13.6875 35.4375 -14 33 C-13.28288618 31.3050037 -12.55926341 29.61162297 -11.76953125 27.94921875 C-10.48621114 24.69857542 -10.30412944 21.46707564 -10 18 C-9.34 18.33 -8.68 18.66 -8 19 C-7.83564453 17.95199219 -7.83564453 17.95199219 -7.66796875 16.8828125 C-7.50941406 15.97273437 -7.35085938 15.06265625 -7.1875 14.125 C-7.03667969 13.22007813 -6.88585937 12.31515625 -6.73046875 11.3828125 C-6 9 -6 9 -3 7 C-2.63371323 5.00577205 -2.29868656 3.00546689 -2 1 C-1.34 0.67 -0.68 0.34 0 0 Z " fill="#551F8D" transform="translate(292,113)"/>
<path d="M0 0 C1.31702102 3.95106307 0.32902094 5.02893761 -1.45703125 8.7265625 C-1.99263672 9.8403125 -2.52824219 10.9540625 -3.08007812 12.1015625 C-3.93762695 13.84566406 -3.93762695 13.84566406 -4.8125 15.625 C-5.37259766 16.79546875 -5.93269531 17.9659375 -6.50976562 19.171875 C-10.73035355 27.86517678 -10.73035355 27.86517678 -13 29 C-13 27.68 -13 26.36 -13 25 C-12.34 25 -11.68 25 -11 25 C-10.67 22.36 -10.34 19.72 -10 17 C-9.01 17 -8.02 17 -7 17 C-7.226875 15.9275 -7.45375 14.855 -7.6875 13.75 C-8 10 -8 10 -6.75 7.5625 C-5 6 -5 6 -2 6 C-1.34 4.02 -0.68 2.04 0 0 Z " fill="#5C22AC" transform="translate(174,170)"/>
<path d="M0 0 C0.99 0.33 1.98 0.66 3 1 C1.49036403 4.77408994 1.49036403 4.77408994 -0.7890625 5.82421875 C-3.71814475 7.3819109 -5.44139914 9.45082411 -7.625 11.9375 C-8.40101563 12.81277344 -9.17703125 13.68804687 -9.9765625 14.58984375 C-12.09545433 17.02383388 -12.09545433 17.02383388 -14 20 C-14.14745421 13.21710635 -10.83858659 10.03975167 -6.32421875 5.234375 C-2.35296103 1.41662809 -2.35296103 1.41662809 0 0 Z " fill="#752BD4" transform="translate(178,65)"/>
<path d="M0 0 C3.92282553 5.8842383 5.56097318 11.61772142 6.6875 18.5 C6.88182617 19.58087891 6.88182617 19.58087891 7.08007812 20.68359375 C7.8494078 25.18559704 8.12615502 29.43438976 8 34 C7.34 33.67 6.68 33.34 6 33 C5.35107497 30.27927761 4.82635679 27.62919754 4.375 24.875 C4.2409375 24.12734375 4.106875 23.3796875 3.96875 22.609375 C3.18291293 18.00661504 2.86381655 13.6673784 3 9 C2.01 8.67 1.02 8.34 0 8 C0 5.36 0 2.72 0 0 Z " fill="#733BD3" transform="translate(455,62)"/>
<path d="M0 0 C3.37019561 1.68509781 4.40050563 5.4160704 6 8.6875 C6.53367188 9.75000977 6.53367188 9.75000977 7.078125 10.83398438 C9.04932661 14.81684137 10.70982586 18.73301783 12 23 C10.68 22.34 9.36 21.68 8 21 C7.34 21.66 6.68 22.32 6 23 C6.33 20.69 6.66 18.38 7 16 C6.34 16 5.68 16 5 16 C4.54625 14.7625 4.0925 13.525 3.625 12.25 C2.78365383 9.98514396 1.94154363 7.88924057 0.8125 5.75 C0 4 0 4 0 0 Z " fill="#3F1884" transform="translate(200,62)"/>
<path d="M0 0 C3.78520613 0.54074373 5.59177555 2.07572746 8 5 C8 5.99 8 6.98 8 8 C9.32 8.33 10.64 8.66 12 9 C12 10.65 12 12.3 12 14 C9.36 14 6.72 14 4 14 C4.226875 12.948125 4.45375 11.89625 4.6875 10.8125 C5.0358134 6.56307649 4.54689353 5.30152865 2 2 C1.34 1.34 0.68 0.68 0 0 Z " fill="#C868F4" transform="translate(448,196)"/>
<path d="M0 0 C-0.33 0.99 -0.66 1.98 -1 3 C-10.57 3.33 -20.14 3.66 -30 4 C-25.49932435 0.62449326 -25.49932435 0.62449326 -21.69921875 0.48828125 C-20.48008789 0.43510742 -20.48008789 0.43510742 -19.23632812 0.38085938 C-18.39521484 0.35830078 -17.55410156 0.33574219 -16.6875 0.3125 C-15.85798828 0.27833984 -15.02847656 0.24417969 -14.17382812 0.20898438 C-9.44738892 0.02619391 -4.72953446 -0.03191319 0 0 Z " fill="#69399F" transform="translate(378,44)"/>
<path d="M0 0 C1.16141517 3.37358911 0.86843082 5.11402549 -0.51171875 8.37109375 C-0.85783203 9.19287109 -1.20394531 10.01464844 -1.56054688 10.86132812 C-1.93244141 11.71146484 -2.30433594 12.56160156 -2.6875 13.4375 C-3.04005859 14.28376953 -3.39261719 15.13003906 -3.75585938 16.00195312 C-5.69496444 20.52889494 -7.64725521 24.31425121 -11 28 C-10.26423736 24.76871253 -9.21510831 21.73051824 -8.0625 18.625 C-6.64299402 14.76910558 -5.26781779 10.90910484 -4 7 C-3.34 7 -2.68 7 -2 7 C-2 5.02 -2 3.04 -2 1 C-1.34 0.67 -0.68 0.34 0 0 Z " fill="#5622A8" transform="translate(461,132)"/>
<path d="M0 0 C3.47887472 -0.11766716 6.9572277 -0.18773315 10.4375 -0.25 C11.41138672 -0.28351562 12.38527344 -0.31703125 13.38867188 -0.3515625 C20.05991702 -0.44080993 25.24619346 0.49705964 31 4 C34 7.09090909 34 7.09090909 34 10 C31 10 31 10 28.5 7.5625 C27.2625 6.2940625 27.2625 6.2940625 26 5 C25.01 4.67 24.02 4.34 23 4 C23 3.34 23 2.68 23 2 C11.615 1.505 11.615 1.505 0 1 C0 0.67 0 0.34 0 0 Z " fill="#A75DC2" transform="translate(140,5)"/>
<path d="M0 0 C1.24330078 -0.020625 2.48660156 -0.04125 3.76757812 -0.0625 C12.64031949 -0.09937373 20.47698982 1.05541947 29.0625 3.25 C29.0625 3.58 29.0625 3.91 29.0625 4.25 C27.50039839 4.30459773 25.93772911 4.34306101 24.375 4.375 C23.06982422 4.40980469 23.06982422 4.40980469 21.73828125 4.4453125 C19.0625 4.25 19.0625 4.25 16.87695312 3.25 C13.33253472 1.9906369 10.06434582 1.99968234 6.35546875 2.0546875 C5.26737663 2.05893234 5.26737663 2.05893234 4.15730286 2.06326294 C1.85469632 2.07440201 -0.44751227 2.09949434 -2.75 2.125 C-4.31705165 2.13503794 -5.88410943 2.14416237 -7.45117188 2.15234375 C-11.28009978 2.1743207 -15.10873256 2.20880661 -18.9375 2.25 C-18.9375 1.92 -18.9375 1.59 -18.9375 1.25 C-12.67260931 -0.20116883 -6.40002686 0.02581957 0 0 Z " fill="#442369" transform="translate(359.9375,1.75)"/>
<path d="M0 0 C2.52113733 0.42018956 4.64048119 0.80583768 6.90136719 2.02685547 C9.24668199 3.11438744 10.75923731 3.2320109 13.328125 3.1953125 C14.12734375 3.18886719 14.9265625 3.18242187 15.75 3.17578125 C16.575 3.15902344 17.4 3.14226562 18.25 3.125 C19.51070312 3.11146484 19.51070312 3.11146484 20.796875 3.09765625 C22.86470604 3.07415817 24.93238995 3.03828908 27 3 C27 2.34 27 1.68 27 1 C28.65 1 30.3 1 32 1 C29.72529378 4.12772105 26.92078883 4.85403916 23.23828125 5.6484375 C16.10289271 6.76917916 9.56159392 6.20174161 3 3 C1.2421875 1.39453125 1.2421875 1.39453125 0 0 Z " fill="#3E106E" transform="translate(218,205)"/>
<path d="M0 0 C1.20914062 0.15597656 2.41828125 0.31195313 3.6640625 0.47265625 C13.67611304 1.68891067 22.94326727 2.21402646 33 1 C32.67 1.66 32.34 2.32 32 3 C26.92272033 4.25127271 21.76222351 4.21747632 16.5625 4.25 C15.74201172 4.270625 14.92152344 4.29125 14.07617188 4.3125 C8.60741878 4.34741622 4.87618967 3.49387897 0 1 C0 0.67 0 0.34 0 0 Z " fill="#4E1F7A" transform="translate(342,165)"/>
<path d="M0 0 C2 3 2 3 1.625 5.6875 C1.41875 6.450625 1.2125 7.21375 1 8 C0.01 8 -0.98 8 -2 8 C-1.7525 8.70125 -1.505 9.4025 -1.25 10.125 C-0.89708513 14.18352105 -2.49018791 15.91651657 -5 19 C-5.66 19 -6.32 19 -7 19 C-7.33 19.99 -7.66 20.98 -8 22 C-8.33 21.34 -8.66 20.68 -9 20 C-8.28735352 17.93701172 -8.28735352 17.93701172 -7.12890625 15.4296875 C-6.51499023 14.08583984 -6.51499023 14.08583984 -5.88867188 12.71484375 C-5.45103516 11.77769531 -5.01339844 10.84054688 -4.5625 9.875 C-3.9118457 8.45767578 -3.9118457 8.45767578 -3.24804688 7.01171875 C-2.1723338 4.67115623 -1.08940487 2.33421339 0 0 Z " fill="#582690" transform="translate(257,77)"/>
<path d="M0 0 C3.5496732 1.7748366 5.21806692 5.55705073 7 9 C7.37366113 10.99285937 7.70740515 12.99363529 8 15 C9.00315861 17.14329471 10.09854453 19.20292751 11.2578125 21.265625 C11.50273437 21.83796875 11.74765625 22.4103125 12 23 C11.67 23.66 11.34 24.32 11 25 C8.96274909 21.40487752 6.94809599 17.79758689 4.9375 14.1875 C4.35677734 13.16333984 3.77605469 12.13917969 3.17773438 11.08398438 C2.63310547 10.10107422 2.08847656 9.11816406 1.52734375 8.10546875 C1.01937256 7.19949951 0.51140137 6.29353027 -0.01196289 5.36010742 C-1 3 -1 3 0 0 Z " fill="#7E4098" transform="translate(145,67)"/>
<path d="M0 0 C1.32 0 2.64 0 4 0 C4 0.66 4 1.32 4 2 C3.34 2 2.68 2 2 2 C2.12375 2.86625 2.2475 3.7325 2.375 4.625 C1.83448968 9.48959287 -0.37588034 10.82889529 -4 14 C-4.66 13.67 -5.32 13.34 -6 13 C-5.67 12.236875 -5.34 11.47375 -5 10.6875 C-3.82563314 8.00930865 -3.82563314 8.00930865 -4 5 C-3.34 4.67 -2.68 4.34 -2 4 C-0.86649466 1.98330173 -0.86649466 1.98330173 0 0 Z " fill="#8234EC" transform="translate(159,193)"/>
<path d="M0 0 C0.33 0 0.66 0 1 0 C1.02886984 3.97915159 1.04675406 7.95827653 1.0625 11.9375 C1.07087891 13.07380859 1.07925781 14.21011719 1.08789062 15.38085938 C1.09111328 16.46044922 1.09433594 17.54003906 1.09765625 18.65234375 C1.10289307 19.65257568 1.10812988 20.65280762 1.11352539 21.68334961 C1 24 1 24 0 25 C-0.23363881 26.84891946 -0.41303635 28.70488031 -0.5625 30.5625 C-0.64628906 31.57441406 -0.73007812 32.58632812 -0.81640625 33.62890625 C-0.90728516 34.80259766 -0.90728516 34.80259766 -1 36 C-2.485 36.495 -2.485 36.495 -4 37 C-3.69262339 34.52009745 -3.37935917 32.04119265 -3.0625 29.5625 C-2.97548828 28.85544922 -2.88847656 28.14839844 -2.79882812 27.41992188 C-2.11328125 22.11328125 -2.11328125 22.11328125 -1 21 C-0.84313751 19.44051458 -0.74923361 17.87457332 -0.68359375 16.30859375 C-0.64169922 15.36435547 -0.59980469 14.42011719 -0.55664062 13.44726562 C-0.49766602 11.95743164 -0.49766602 11.95743164 -0.4375 10.4375 C-0.39431641 9.44041016 -0.35113281 8.44332031 -0.30664062 7.41601562 C-0.20019702 4.9441585 -0.09818072 2.4721969 0 0 Z " fill="#7238DF" transform="translate(463,96)"/>
<path d="M0 0 C5.35238382 0.94961648 5.35238382 0.94961648 8 2 C9.4375 4.3125 9.4375 4.3125 10 7 C10.20625 7.928125 10.4125 8.85625 10.625 9.8125 C10.74875 10.534375 10.8725 11.25625 11 12 C10.01 12 9.02 12 8 12 C6.94410931 10.36816893 5.9563874 8.69207001 5 7 C4.12408324 5.90050089 3.22756117 4.81714176 2.3125 3.75 C0 1 0 1 0 0 Z " fill="#6625A5" transform="translate(368,154)"/>
<path d="M0 0 C0.94314127 3.41610225 1.08065117 6.45134864 1 10 C0.01 10.495 0.01 10.495 -1 11 C-1.33 11.99 -1.66 12.98 -2 14 C-1.34 14 -0.68 14 0 14 C0.66 16.31 1.32 18.62 2 21 C-3.69947276 16.6344464 -3.69947276 16.6344464 -4.84375 14.21875 C-5.07375399 10.9526934 -3.88474914 8.71699806 -2.5625 5.75 C-2.08941406 4.67234375 -1.61632812 3.5946875 -1.12890625 2.484375 C-0.75636719 1.66453125 -0.38382812 0.8446875 0 0 Z " fill="#4E219D" transform="translate(417,125)"/>
<path d="M0 0 C2.81519008 2.81519008 4.35579498 5.10971366 6.25 8.5625 C6.79140625 9.53316406 7.3328125 10.50382812 7.890625 11.50390625 C8.25671875 12.32761719 8.6228125 13.15132812 9 14 C8.67 14.66 8.34 15.32 8 16 C7.401875 15.505 6.80375 15.01 6.1875 14.5 C4.02970006 12.71723582 4.02970006 12.71723582 1 13 C0.67 8.71 0.34 4.42 0 0 Z " fill="#8849A9" transform="translate(67,20)"/>
<path d="M0 0 C3.875 1.75 3.875 1.75 5 4 C5.66 3.67 6.32 3.34 7 3 C7.33 4.65 7.66 6.3 8 8 C9.32 8.33 10.64 8.66 12 9 C12 9.66 12 10.32 12 11 C9.875 11.375 9.875 11.375 7 11 C3.59757176 8.5824852 1.34544327 6.1350279 0.125 2.125 C0.08375 1.42375 0.0425 0.7225 0 0 Z " fill="#8D47BA" transform="translate(409,199)"/>
<path d="M0 0 C0.66 0 1.32 0 2 0 C2 0.99 2 1.98 2 3 C2.94875 2.938125 3.8975 2.87625 4.875 2.8125 C5.90625 2.874375 6.9375 2.93625 8 3 C8.99 4.485 8.99 4.485 10 6 C14.04234251 7.2746125 18.10531783 7.10181946 22.3125 7.0625 C23.56675781 7.05347656 24.82101563 7.04445312 26.11328125 7.03515625 C27.06589844 7.02355469 28.01851562 7.01195312 29 7 C29 7.33 29 7.66 29 8 C25.13050773 8.89518105 21.46946297 9.19435332 17.5 9.25 C16.3965625 9.27578125 15.293125 9.3015625 14.15625 9.328125 C10.64654453 8.96325463 8.88364306 7.96386036 6 6 C5.0925 5.690625 4.185 5.38125 3.25 5.0625 C1 4 1 4 0.1875 1.875 C0.125625 1.25625 0.06375 0.6375 0 0 Z " fill="#6A24BD" transform="translate(216,200)"/>
<path d="M0 0 C0.66 0.33 1.32 0.66 2 1 C1.2884375 1.5878125 1.2884375 1.5878125 0.5625 2.1875 C-1.35179633 4.40808374 -1.61266988 6.13375709 -2 9 C-2.5775 8.79375 -3.155 8.5875 -3.75 8.375 C-6.51967567 7.91338739 -7.64561267 8.57055055 -10 10 C-10 7 -10 7 -8.57421875 5.4296875 C-7.95160156 4.91664062 -7.32898438 4.40359375 -6.6875 3.875 C-6.07261719 3.35679688 -5.45773437 2.83859375 -4.82421875 2.3046875 C-3 1 -3 1 0 0 Z " fill="#9D55EE" transform="translate(302,22)"/>
<path d="M0 0 C0.33 0 0.66 0 1 0 C1.2493357 1.60115576 1.47378648 3.20620159 1.6875 4.8125 C1.81511719 5.70582031 1.94273437 6.59914063 2.07421875 7.51953125 C2 10 2 10 0.76953125 11.76171875 C-1.15820584 13.11070916 -2.69484495 13.60255947 -5 14 C-3.45730076 9.27934033 -1.92205381 4.58335908 0 0 Z " fill="#6B2BB0" transform="translate(247,99)"/>
<path d="M0 0 C3.77548716 1.33882523 6.61387689 3.01635888 9.75 5.5 C10.52859375 6.1084375 11.3071875 6.716875 12.109375 7.34375 C14 9 14 9 15 11 C9.50581395 11.36627907 9.50581395 11.36627907 7.1875 9.6875 C6 8 6 8 5 5 C4.01 4.67 3.02 4.34 2 4 C0.8125 1.9375 0.8125 1.9375 0 0 Z M6 10 C8 11 8 11 8 11 Z " fill="#60359F" transform="translate(414,17)"/>
<path d="M0 0 C9.01746725 0.76419214 9.01746725 0.76419214 13 4 C13 4.99 13 5.98 13 7 C11.35 6.67 9.7 6.34 8 6 C8 5.34 8 4.68 8 4 C5.69 3.67 3.38 3.34 1 3 C0.67 2.01 0.34 1.02 0 0 Z " fill="#8336D8" transform="translate(391,138)"/>
<path d="M0 0 C0.99 0 1.98 0 3 0 C3.66 0.66 4.32 1.32 5 2 C4.34 2 3.68 2 3 2 C3.33773437 2.59167969 3.67546875 3.18335937 4.0234375 3.79296875 C6.27641158 7.78450953 8.4619821 11.66558593 10 16 C9.01 16 8.02 16 7 16 C6.34 14.02 5.68 12.04 5 10 C4.34 10 3.68 10 3 10 C2.67 7.69 2.34 5.38 2 3 C1.34 3 0.68 3 0 3 C0 2.01 0 1.02 0 0 Z " fill="#A557E3" transform="translate(62,110)"/>
<path d="M0 0 C3.22269618 3.79817765 5.74520378 7.57391854 8 12 C7.67 12.66 7.34 13.32 7 14 C6.34 13.67 5.68 13.34 5 13 C5 12.34 5 11.68 5 11 C4.01 11 3.02 11 2 11 C2 10.34 2 9.68 2 9 C1.34 8.67 0.68 8.34 0 8 C-0.95067299 4.71585695 -1.10102197 3.30306592 0 0 Z " fill="#9957BE" transform="translate(76,36)"/>
<path d="M0 0 C5.75 0.75 5.75 0.75 8 3 C9.32467746 3.6837045 10.65863633 4.34964186 12 5 C12.99 5.66 13.98 6.32 15 7 C16.66324401 8.00568242 18.32936253 9.00664799 20 10 C19.01 10.495 19.01 10.495 18 11 C15.62933578 10.01667938 13.40285803 8.97926435 11.125 7.8125 C10.49980469 7.50763672 9.87460937 7.20277344 9.23046875 6.88867188 C5.54766235 5.03169656 2.73063607 3.09426348 0 0 Z " fill="#491A80" transform="translate(303,193)"/>
<path d="M0 0 C1.32 0 2.64 0 4 0 C2.49087042 4.98012761 -0.55661849 8.24259942 -4 12 C-4.99 11.34 -5.98 10.68 -7 10 C-7 9.34 -7 8.68 -7 8 C-5.35 7.67 -3.7 7.34 -2 7 C-1.855625 6.030625 -1.71125 5.06125 -1.5625 4.0625 C-1 1 -1 1 0 0 Z " fill="#5422B0" transform="translate(446,160)"/>
<path d="M0 0 C2.35953094 2.35953094 2.49141413 3.77895617 3 7 C0.18515955 8.40742022 -1.56936113 7.66652164 -4.625 7.0625 C-5.62789062 6.86785156 -6.63078125 6.67320313 -7.6640625 6.47265625 C-8.43492187 6.31667969 -9.20578125 6.16070312 -10 6 C-10.33 6.66 -10.66 7.32 -11 8 C-12.65 8 -14.3 8 -16 8 C-16 7.34 -16 6.68 -16 6 C-13.0384304 4.5192152 -10.16493705 4.64685963 -6.875 4.4375 C-5.59367188 4.35371094 -4.31234375 4.26992188 -2.9921875 4.18359375 C-2.00476563 4.12300781 -1.01734375 4.06242187 0 4 C0 2.68 0 1.36 0 0 Z " fill="#722EC1" transform="translate(198,58)"/>
<path d="M0 0 C1.9375 0.5625 1.9375 0.5625 4 2 C4.40729228 4.32156597 4.74438677 6.6568787 5 9 C5.66 9.33 6.32 9.66 7 10 C7 11.98 7 13.96 7 16 C4.64917788 13.10357159 3.16480594 10.34643669 1.8125 6.875 C1.46832031 6.00617188 1.12414062 5.13734375 0.76953125 4.2421875 C0 2 0 2 0 0 Z M4 0 C4.99 0.495 4.99 0.495 6 1 C5.01 1.495 5.01 1.495 4 2 C4 1.34 4 0.68 4 0 Z " fill="#581EA4" transform="translate(201,175)"/>
<path d="M0 0 C0.66 0 1.32 0 2 0 C0.65150163 4.35970831 -1.04907846 8.31341438 -3.125 12.375 C-3.66382813 13.43460938 -4.20265625 14.49421875 -4.7578125 15.5859375 C-5.16773438 16.38257813 -5.57765625 17.17921875 -6 18 C-6.33 18 -6.66 18 -7 18 C-7.36637589 11.64948454 -7.36637589 11.64948454 -5.625 8.5625 C-4 7 -4 7 -2 7 C-1.34 4.69 -0.68 2.38 0 0 Z " fill="#541D9D" transform="translate(182,152)"/>
<path d="M0 0 C4.19469571 0.59924224 8.00999834 1.57499941 12 3 C12 2.34 12 1.68 12 1 C12.66 1 13.32 1 14 1 C14.33 2.98 14.66 4.96 15 7 C11.14974121 6.39644592 8.13898841 5.23227397 4.6875 3.4375 C3.80449219 2.98246094 2.92148437 2.52742188 2.01171875 2.05859375 C1.34785156 1.70925781 0.68398438 1.35992187 0 1 C0 0.67 0 0.34 0 0 Z " fill="#6B38AE" transform="translate(382,50)"/>
<path d="M0 0 C0.66 0 1.32 0 2 0 C3.32 3.3 4.64 6.6 6 10 C6.99 10 7.98 10 9 10 C8.34 11.65 7.68 13.3 7 15 C0.09453782 8.45798319 0.09453782 8.45798319 -0.125 2.75 C-0.08375 1.8425 -0.0425 0.935 0 0 Z " fill="#B05DD7" transform="translate(15,25)"/>
<path d="M0 0 C0.33 0.66 0.66 1.32 1 2 C1.66 2.144375 2.32 2.28875 3 2.4375 C3.66 2.623125 4.32 2.80875 5 3 C5.33 3.99 5.66 4.98 6 6 C6.66 6.33 7.32 6.66 8 7 C7.67 9.31 7.34 11.62 7 14 C0 5.25 0 5.25 0 0 Z " fill="#964CB4" transform="translate(137,54)"/>
<path d="M0 0 C0.66 0 1.32 0 2 0 C1.814375 0.61875 1.62875 1.2375 1.4375 1.875 C0.76313824 4.04160178 0.76313824 4.04160178 2 6 C0.5625 8.625 0.5625 8.625 -1 11 C-1.99 10.67 -2.98 10.34 -4 10 C-4 8.35 -4 6.7 -4 5 C-3.34 5 -2.68 5 -2 5 C-1.7834375 4.0409375 -1.7834375 4.0409375 -1.5625 3.0625 C-1 1 -1 1 0 0 Z " fill="#8135ED" transform="translate(154,196)"/>
<path d="M0 0 C0.33 0 0.66 0 1 0 C1.06058594 0.60328125 1.12117188 1.2065625 1.18359375 1.828125 C1.26738281 2.62734375 1.35117187 3.4265625 1.4375 4.25 C1.55931641 5.43335937 1.55931641 5.43335937 1.68359375 6.640625 C1.91787473 8.97414956 1.91787473 8.97414956 2.6875 11 C3.13876346 13.88808614 2.04783701 15.28651424 0.5625 17.75 C0.08941406 18.54921875 -0.38367188 19.3484375 -0.87109375 20.171875 C-1.24363281 20.77515625 -1.61617188 21.3784375 -2 22 C-2.625 20.25 -2.625 20.25 -3 18 C-2.33333333 16.66666667 -1.66666667 15.33333333 -1 14 C-0.71121265 11.59162245 -0.50954974 9.17189532 -0.375 6.75 C-0.30023438 5.48671875 -0.22546875 4.2234375 -0.1484375 2.921875 C-0.09945313 1.95765625 -0.05046875 0.9934375 0 0 Z " fill="#6F32D2" transform="translate(421,103)"/>
<path d="M0 0 C0.763125 0.20625 1.52625 0.4125 2.3125 0.625 C-7.79276316 8.625 -7.79276316 8.625 -11.6875 8.625 C-11.5 6.8125 -11.5 6.8125 -10.6875 4.625 C-8.3125 3 -8.3125 3 -5.6875 1.625 C-2.6875 -0.375 -2.6875 -0.375 0 0 Z " fill="#7540B7" transform="translate(336.6875,49.375)"/>
<path d="M0 0 C-0.40683495 2.35964273 -0.89814339 3.85934088 -2.3125 5.8125 C-4 7 -4 7 -6.0625 7 C-8 6 -8 6 -9.25 3.4375 C-9.4975 2.633125 -9.745 1.82875 -10 1 C-9.34 1 -8.68 1 -8 1 C-8 1.66 -8 2.32 -8 3 C-7.05125 2.505 -6.1025 2.01 -5.125 1.5 C-2 0 -2 0 0 0 Z " fill="#7528D1" transform="translate(254,199)"/>
<path d="M0 0 C0.66 0.33 1.32 0.66 2 1 C0.66958425 10.17286652 0.66958425 10.17286652 -2.125 13.625 C-2.74375 14.07875 -3.3625 14.5325 -4 15 C-3.63495936 9.33557626 -2.9445679 4.99296295 0 0 Z " fill="#6323A4" transform="translate(241,113)"/>
<path d="M0 0 C0.33 0 0.66 0 1 0 C1.25 2.75 1.25 2.75 1 6 C-0.29103643 7.3743291 -1.6256709 8.70896357 -3 10 C-3.79681318 12.64184541 -3.79681318 12.64184541 -4 15 C-4.66 15 -5.32 15 -6 15 C-6.33 15.99 -6.66 16.98 -7 18 C-7.33 17.34 -7.66 16.68 -8 16 C-7.37915039 14.30419922 -7.37915039 14.30419922 -6.34765625 12.3046875 C-5.98349609 11.58925781 -5.61933594 10.87382813 -5.24414062 10.13671875 C-4.85419922 9.39035156 -4.46425781 8.64398438 -4.0625 7.875 C-3.67642578 7.12089844 -3.29035156 6.36679688 -2.89257812 5.58984375 C-1.93547868 3.72290903 -0.96863894 1.86097372 0 0 Z " fill="#602E9A" transform="translate(266,59)"/>
<path d="M0 0 C1.21236328 0.12568359 1.21236328 0.12568359 2.44921875 0.25390625 C3.51785156 0.35574219 4.58648437 0.45757812 5.6875 0.5625 C6.74324219 0.66691406 7.79898437 0.77132812 8.88671875 0.87890625 C11.81426086 0.99277552 14.17131144 0.70848415 17 0 C16.67 1.32 16.34 2.64 16 4 C9.79029227 4.33266291 5.71735105 3.45029331 0 1 C0 0.67 0 0.34 0 0 Z " fill="#612595" transform="translate(323,204)"/>
<path d="M0 0 C2.97246802 2.54782974 4.41535288 5.45340883 6 9 C6 9.66 6 10.32 6 11 C6.66 11 7.32 11 8 11 C8.33 10.01 8.66 9.02 9 8 C8.67 9.65 8.34 11.3 8 13 C6.68 13 5.36 13 4 13 C3.32942113 11.2097939 2.6636531 9.41778511 2 7.625 C1.62875 6.62726563 1.2575 5.62953125 0.875 4.6015625 C0 2 0 2 0 0 Z " fill="#48188C" transform="translate(228,116)"/>
<path d="M0 0 C0.66 0 1.32 0 2 0 C2.69906942 1.59915881 3.38389468 3.20455045 4.0625 4.8125 C4.63677734 6.15248047 4.63677734 6.15248047 5.22265625 7.51953125 C6 10 6 10 5 13 C4.34 12.67 3.68 12.34 3 12 C3 10.68 3 9.36 3 8 C2.34 8 1.68 8 1 8 C0.67 5.36 0.34 2.72 0 0 Z " fill="#5B21AC" transform="translate(223,108)"/>
<path d="M0 0 C1.98 0.99 1.98 0.99 4 2 C4 3.32 4 4.64 4 6 C4.66 6 5.32 6 6 6 C6 7.32 6 8.64 6 10 C6.66 10 7.32 10 8 10 C8.66 12.64 9.32 15.28 10 18 C6.87084199 15.3137382 5.2357324 12.04608071 3.3125 8.4375 C2.68988281 7.28121094 2.06726562 6.12492187 1.42578125 4.93359375 C0 2 0 2 0 0 Z " fill="#784098" transform="translate(39,73)"/>
<path d="M0 0 C0.33 0.66 0.66 1.32 1 2 C1.66 2 2.32 2 3 2 C3.2475 3.155 3.495 4.31 3.75 5.5 C4.71151537 9.45133688 6.27479646 12.72252528 8.29296875 16.23828125 C9 18 9 18 8 21 C6.65411674 18.44342265 5.32324672 15.88076095 4 13.3125 C3.6184375 12.59126953 3.236875 11.87003906 2.84375 11.12695312 C0.8837916 7.29453447 -0.55874253 4.42628851 0 0 Z " fill="#69377F" transform="translate(115,8)"/>
<path d="M0 0 C0 0.66 0 1.32 0 2 C0.99 2.66 1.98 3.32 3 4 C3 4.66 3 5.32 3 6 C0.69 6.66 -1.62 7.32 -4 8 C-4.6875 5.6875 -4.6875 5.6875 -5 3 C-3.40083326 0.79162689 -2.76966516 0 0 0 Z " fill="#A94BEC" transform="translate(408,192)"/>
<path d="M0 0 C3.82352106 1.5577308 6.29205593 3.91595258 9 7 C9 7.99 9 8.98 9 10 C8.34 9.67 7.68 9.34 7 9 C6.01 9.495 6.01 9.495 5 10 C4.67 9.01 4.34 8.02 4 7 C3.01 6.34 2.02 5.68 1 5 C0.3125 2.375 0.3125 2.375 0 0 Z " fill="#934BAF" transform="translate(55,6)"/>
<path d="M0 0 C6.71539173 1.29975324 12.72019113 3.29928888 19 6 C19 6.99 19 7.98 19 9 C18.47664063 8.7215625 17.95328125 8.443125 17.4140625 8.15625 C13.36120321 6.21507468 9.1121807 4.77168008 4.8984375 3.21875 C2 2 2 2 0 0 Z " fill="#975DE7" transform="translate(387,7)"/>
<path d="M0 0 C1.00847211 1.32693699 2.00549539 2.66256277 3 4 C3.6496875 4.86818359 3.6496875 4.86818359 4.3125 5.75390625 C4.76625 6.37136719 5.22 6.98882812 5.6875 7.625 C6.12449219 8.21539062 6.56148438 8.80578125 7.01171875 9.4140625 C8 11 8 11 8 13 C5.33333333 11.66666667 2.66666667 10.33333333 0 9 C0 6.03 0 3.06 0 0 Z " fill="#4D1B99" transform="translate(306,133)"/>
<path d="M0 0 C1.16144531 0.00902344 2.32289062 0.01804687 3.51953125 0.02734375 C4.39996094 0.03894531 5.28039062 0.05054688 6.1875 0.0625 C2.0079355 2.84887633 0.04081323 1.85812512 -4.8125 1.0625 C-5.1425 2.0525 -5.4725 3.0425 -5.8125 4.0625 C-5.8125 3.4025 -5.8125 2.7425 -5.8125 2.0625 C-7.7925 3.3825 -9.7725 4.7025 -11.8125 6.0625 C-11.8125 4.4125 -11.8125 2.7625 -11.8125 1.0625 C-7.81454108 0.10630267 -4.10446078 -0.0414592 0 0 Z " fill="#C86EF0" transform="translate(19.8125,6.9375)"/>
<path d="M0 0 C4.18423892 3.50897269 8.19588166 7.08060535 12 11 C9.5625 10.625 9.5625 10.625 7 10 C6.67 9.34 6.34 8.68 6 8 C5.01 7.67 4.02 7.34 3 7 C3 6.34 3 5.68 3 5 C2.01 4.67 1.02 4.34 0 4 C0 2.68 0 1.36 0 0 Z " fill="#511C8D" transform="translate(314,146)"/>
<path d="M0 0 C5.94 0 11.88 0 18 0 C14.31954508 1.84022746 13.21254016 2.2580902 9.375 2.1875 C8.59898437 2.18105469 7.82296875 2.17460937 7.0234375 2.16796875 C5 2 5 2 3 1 C3 2.32 3 3.64 3 5 C2.34 5 1.68 5 1 5 C0.67 3.35 0.34 1.7 0 0 Z " fill="#7529C9" transform="translate(359,138)"/>
<path d="M0 0 C1.00000429 4.00001715 0.80688405 6.05523353 0 10 C-0.66 10 -1.32 10 -2 10 C-3.6446674 12.46326712 -3.6446674 12.46326712 -5 15 C-5.66 14.67 -6.32 14.34 -7 14 C-4.69 9.38 -2.38 4.76 0 0 Z " fill="#461B86" transform="translate(141,129)"/>
<path d="M0 0 C-3.12988781 2.64836661 -6.0193072 4.0048268 -10 5 C-12.375 4.625 -12.375 4.625 -14 4 C-14 3.34 -14 2.68 -14 2 C-9.15758367 0.66416101 -5.06562383 -0.25328119 0 0 Z " fill="#A24AE0" transform="translate(404,200)"/>
<path d="M0 0 C3.22269618 3.79817765 5.74520378 7.57391854 8 12 C7.67 12.66 7.34 13.32 7 14 C6.566875 13.525625 6.13375 13.05125 5.6875 12.5625 C3.97690387 10.76313043 3.97690387 10.76313043 1 10 C1.33 8.02 1.66 6.04 2 4 C1.34 4 0.68 4 0 4 C0 2.68 0 1.36 0 0 Z " fill="#7D3E95" transform="translate(181,27)"/>
<path d="M0 0 C1.32176485 0.90325616 2.63215066 1.82317903 3.9375 2.75 C4.66839844 3.26046875 5.39929688 3.7709375 6.15234375 4.296875 C8.20805399 6.19177915 8.62669176 7.27425729 9 10 C4.25 8.125 4.25 8.125 2 7 C2 5.68 2 4.36 2 3 C1.34 3 0.68 3 0 3 C0 2.01 0 1.02 0 0 Z " fill="#9F53D6" transform="translate(430,174)"/>
<path d="M0 0 C7 8.75 7 8.75 7 13 C5 13 5 13 2.9375 11.5625 C0.18918922 7.92763735 0.19041398 4.45568718 0 0 Z " fill="#5A3298" transform="translate(127,130)"/>
<path d="M0 0 C2.475 0.495 2.475 0.495 5 1 C5 1.66 5 2.32 5 3 C5.99 3.33 6.98 3.66 8 4 C8.33 5.65 8.66 7.3 9 9 C8.01 9 7.02 9 6 9 C6 8.34 6 7.68 6 7 C5.34 7 4.68 7 4 7 C3.67 6.01 3.34 5.02 3 4 C2.01979625 2.9805881 1.02196992 1.97753644 0 1 C0 0.67 0 0.34 0 0 Z " fill="#C168E9" transform="translate(76,46)"/>
<path d="M0 0 C3.39914975 1.13304992 4.05254451 2.12518475 6 5 C5.67 5.66 5.34 6.32 5 7 C5.66 7.33 6.32 7.66 7 8 C6.34 9.32 5.68 10.64 5 12 C4.16180842 10.37750059 3.3295884 8.75191503 2.5 7.125 C2.0359375 6.22007813 1.571875 5.31515625 1.09375 4.3828125 C0 2 0 2 0 0 Z " fill="#82419F" transform="translate(9,17)"/>
<path d="M0 0 C0.99 0 1.98 0 3 0 C1.63589551 5.59282842 -1.15383526 8.91193811 -5 13 C-5.66 12.67 -6.32 12.34 -7 12 C-6.54625 11.608125 -6.0925 11.21625 -5.625 10.8125 C-3.72357081 8.69167513 -2.93795972 6.66957765 -2 4 C-1.34 4 -0.68 4 0 4 C0 2.68 0 1.36 0 0 Z " fill="#4D198E" transform="translate(257,193)"/>
<path d="M0 0 C0.33 0.66 0.66 1.32 1 2 C-0.07674702 4.28258633 -1.19546116 6.4356434 -2.4375 8.625 C-2.77587891 9.23601562 -3.11425781 9.84703125 -3.46289062 10.4765625 C-4.30146192 11.988353 -5.14982577 13.49470399 -6 15 C-6.33 13.68 -6.66 12.36 -7 11 C-6.34 11 -5.68 11 -5 11 C-4.67 8.36 -4.34 5.72 -4 3 C-3.01 3 -2.02 3 -1 3 C-0.67 2.01 -0.34 1.02 0 0 Z " fill="#501F93" transform="translate(168,184)"/>
<path d="M0 0 C0.99 0 1.98 0 3 0 C2.27991594 4.60853797 0.68704061 8.67237409 -1 13 C-1.33 13 -1.66 13 -2 13 C-2 10.03 -2 7.06 -2 4 C-1.34 4 -0.68 4 0 4 C0 2.68 0 1.36 0 0 Z " fill="#571B92" transform="translate(269,164)"/>
<path d="M0 0 C2.1875 0 2.1875 0 5 1 C7.0496546 3.46066713 8.73494821 6.05423654 10 9 C9.67 9.66 9.34 10.32 9 11 C7.49703315 9.35687553 5.99769719 7.71042916 4.5 6.0625 C3.6646875 5.14597656 2.829375 4.22945312 1.96875 3.28515625 C0 1 0 1 0 0 Z " fill="#531B86" transform="translate(358,143)"/>
<path d="M0 0 C0.33 0 0.66 0 1 0 C1.3125 3.1875 1.3125 3.1875 1 7 C-1.5 9.9375 -1.5 9.9375 -4 12 C-3.27272727 3.27272727 -3.27272727 3.27272727 0 0 Z " fill="#782ED8" transform="translate(162,86)"/>
<path d="M0 0 C2.97246802 2.54782974 4.41535288 5.45340883 6 9 C6 9.66 6 10.32 6 11 C4.68 11 3.36 11 2 11 C2 9.35 2 7.7 2 6 C1.01 6 0.02 6 -1 6 C-0.67 4.02 -0.34 2.04 0 0 Z " fill="#8948A9" transform="translate(88,58)"/>
<path d="M0 0 C3.09592835 3.5087188 4.74194623 6.49197399 6 11 C4.125 10.875 4.125 10.875 2 10 C0.40155515 6.40349908 0 3.96602757 0 0 Z " fill="#723EA3" transform="translate(112,102)"/>
<path d="M0 0 C0.66 0.99 1.32 1.98 2 3 C0.7260411 5.03833424 -0.61061923 7.03852126 -2 9 C-2.66 9 -3.32 9 -4 9 C-4.33 9.99 -4.66 10.98 -5 12 C-5.33 11.34 -5.66 10.68 -6 10 C-4.56477275 6.05312508 -3.32169911 2.68899452 0 0 Z " fill="#6328A3" transform="translate(254,87)"/>
<path d="M0 0 C1.32 0.33 2.64 0.66 4 1 C3.34 1 2.68 1 2 1 C1.773125 1.556875 1.54625 2.11375 1.3125 2.6875 C-0.35896766 5.63246684 -2.55276352 7.68156544 -5 10 C-5.33 9.01 -5.66 8.02 -6 7 C-4.78515625 5.17578125 -4.78515625 5.17578125 -3.0625 3.3125 C-2.49660156 2.68988281 -1.93070312 2.06726562 -1.34765625 1.42578125 C-0.90292969 0.95527344 -0.45820313 0.48476563 0 0 Z " fill="#9753E8" transform="translate(284,36)"/>
<path d="M0 0 C1 3 1 3 0.5 4.875 C-0.1206595 7.51280286 0.34952865 9.3981146 1 12 C-1.62386487 8.93882432 -2 8.26826873 -2 4 C-2.66 4 -3.32 4 -4 4 C-4 3.01 -4 2.02 -4 1 C-2 0 -2 0 0 0 Z " fill="#6825C4" transform="translate(200,163)"/>
<path d="M0 0 C1.5625 1.25 1.5625 1.25 3 3 C2.6875 5.1875 2.6875 5.1875 2 7 C1.34 6.01 0.68 5.02 0 4 C-1.98 8.455 -1.98 8.455 -4 13 C-5 11 -5 11 -4.2578125 8.65234375 C-3.88398438 7.75644531 -3.51015625 6.86054688 -3.125 5.9375 C-2.75632812 5.03902344 -2.38765625 4.14054687 -2.0078125 3.21484375 C-1 1 -1 1 0 0 Z " fill="#290B52" transform="translate(301,122)"/>
<path d="M0 0 C1.32 0 2.64 0 4 0 C2.45730076 4.72065967 0.92205381 9.41664092 -1 14 C-2.13732426 10.59598052 -1.83989957 8.22543336 -1.0625 4.75 C-0.86785156 3.85796875 -0.67320312 2.9659375 -0.47265625 2.046875 C-0.31667969 1.37140625 -0.16070312 0.6959375 0 0 Z " fill="#592892" transform="translate(303,80)"/>
<path d="M0 0 C1.32 0 2.64 0 4 0 C4.12375 0.639375 4.2475 1.27875 4.375 1.9375 C4.684375 2.9584375 4.684375 2.9584375 5 4 C5.66 4.33 6.32 4.66 7 5 C7 5.66 7 6.32 7 7 C5.35 6.67 3.7 6.34 2 6 C1.34 4.02 0.68 2.04 0 0 Z " fill="#934CB1" transform="translate(31,59)"/>
<path d="M0 0 C1.125 1.75 1.125 1.75 2 4 C1.1875 6 1.1875 6 0 8 C-0.36784131 9.3242287 -0.71202981 10.65613912 -1 12 C-1.66 12 -2.32 12 -3 12 C-2.14285714 3.42857143 -2.14285714 3.42857143 0 0 Z " fill="#7831E5" transform="translate(420,121)"/>
<path d="M0 0 C7 8.75 7 8.75 7 13 C6.01 13 5.02 13 4 13 C3.67 11.35 3.34 9.7 3 8 C2.34 8 1.68 8 1 8 C0.67 5.36 0.34 2.72 0 0 Z " fill="#6D388E" transform="translate(103,85)"/>
<path d="M0 0 C0.66 0 1.32 0 2 0 C3 3 3 3 2.0390625 5.04296875 C1.57242187 5.75066406 1.10578125 6.45835938 0.625 7.1875 C0.16351563 7.90292969 -0.29796875 8.61835937 -0.7734375 9.35546875 C-1.17820312 9.89816406 -1.58296875 10.44085938 -2 11 C-2.33 11 -2.66 11 -3 11 C-3.33 8.69 -3.66 6.38 -4 4 C-2.68 3.34 -1.36 2.68 0 2 C0 1.34 0 0.68 0 0 Z " fill="#6E39AF" transform="translate(310,69)"/>
<path d="M0 0 C2 0 2 0 4.0625 1.75 C6.01396041 4.01621209 6.41372742 5.1663492 7 8 C7.66 8.33 8.32 8.66 9 9 C8.67 10.32 8.34 11.64 8 13 C6.66388095 11.0226631 5.33100742 9.04327287 4 7.0625 C3.6184375 6.49853516 3.236875 5.93457031 2.84375 5.35351562 C0 1.11328125 0 1.11328125 0 0 Z " fill="#562998" transform="translate(406,67)"/>
<path d="M0 0 C3 1 3 1 5 3 C5.125 5.625 5.125 5.625 5 8 C5.66 8.33 6.32 8.66 7 9 C6.01 9 5.02 9 4 9 C0 2.25 0 2.25 0 0 Z " fill="#7E42A5" transform="translate(53,98)"/>
<path d="M0 0 C1.9375 0.8125 1.9375 0.8125 4 2 C4.33 2.99 4.66 3.98 5 5 C5.66 5.33 6.32 5.66 7 6 C7 7.98 7 9.96 7 12 C6.7525 11.4225 6.505 10.845 6.25 10.25 C5.07542932 7.88006584 5.07542932 7.88006584 2.9375 6 C0.92392778 3.92147384 0.40175906 2.81231342 0 0 Z " fill="#C46AED" transform="translate(37,67)"/>
<path d="M0 0 C3.48331435 3.01887244 4.79157144 5.56909529 6 10 C4 10 4 10 1.875 8.375 C-0.47736015 5.39534381 -0.33663062 3.70293685 0 0 Z " fill="#8747A1" transform="translate(192,48)"/>
<path d="M0 0 C1.32 0 2.64 0 4 0 C5.35439668 2.70879335 5.06501451 5.00933268 5 8 C4.01 7.67 3.02 7.34 2 7 C2 5.35 2 3.7 2 2 C1.34 2 0.68 2 0 2 C0 1.34 0 0.68 0 0 Z " fill="#9555CA" transform="translate(107,98)"/>
<path d="M0 0 C3.08089673 2.77280706 4.68775452 5.06326356 6 9 C4.02 8.01 2.04 7.02 0 6 C0 4.02 0 2.04 0 0 Z " fill="#6135A7" transform="translate(445,46)"/>
<path d="M0 0 C0.33 0.99 0.66 1.98 1 3 C-3.95 4.485 -3.95 4.485 -9 6 C-3.15384615 0 -3.15384615 0 0 0 Z " fill="#663799" transform="translate(306,18)"/>
<path d="M0 0 C1.14926266 0.95421808 2.29430541 1.91352045 3.4375 2.875 C4.07558594 3.40867188 4.71367187 3.94234375 5.37109375 4.4921875 C7 6 7 6 8 8 C6.35 7.67 4.7 7.34 3 7 C3 6.01 3 5.02 3 4 C2.01 4.33 1.02 4.66 0 5 C0 3.35 0 1.7 0 0 Z " fill="#6C33A1" transform="translate(416,157)"/>
<path d="M0 0 C0.66 0.33 1.32 0.66 2 1 C0.68 3.31 -0.64 5.62 -2 8 C-2.66 7.67 -3.32 7.34 -4 7 C-3.67 5.68 -3.34 4.36 -3 3 C-3.66 2.67 -4.32 2.34 -5 2 C-2.625 0.9375 -2.625 0.9375 0 0 Z " fill="#722EE5" transform="translate(451,153)"/>
<path d="M0 0 C1.32 0.33 2.64 0.66 4 1 C3.67 2.32 3.34 3.64 3 5 C3.66 5 4.32 5 5 5 C5.33 6.98 5.66 8.96 6 11 C3.02753198 8.45217026 1.58464712 5.54659117 0 2 C0 1.34 0 0.68 0 0 Z " fill="#773D9F" transform="translate(59,108)"/>
<path d="M0 0 C0.99 0 1.98 0 3 0 C3.66 1.98 4.32 3.96 5 6 C3.68 5.34 2.36 4.68 1 4 C0.34 4.66 -0.32 5.32 -1 6 C-1.042721 4.33388095 -1.04063832 2.66617115 -1 1 C-0.67 0.67 -0.34 0.34 0 0 Z " fill="#511EAB" transform="translate(207,79)"/>
<path d="M0 0 C0.99 0 1.98 0 3 0 C3 1.98 3 3.96 3 6 C3.66 6.33 4.32 6.66 5 7 C4.01 8.485 4.01 8.485 3 10 C0.96564469 6.27034861 0 4.33094958 0 0 Z " fill="#9D54BA" transform="translate(124,27)"/>
<path d="M0 0 C0.99 0.33 1.98 0.66 3 1 C5.22574335 1.22451458 7.45581519 1.40782878 9.6875 1.5625 C10.86699219 1.64628906 12.04648437 1.73007813 13.26171875 1.81640625 C14.61716797 1.90728516 14.61716797 1.90728516 16 2 C16 2.33 16 2.66 16 3 C10.39 3 4.78 3 -1 3 C-0.67 2.01 -0.34 1.02 0 0 Z " fill="#B65CDF" transform="translate(423,208)"/>
<path d="M0 0 C4.96916636 0.51405169 9.29026351 1.23384882 14 3 C14 3.33 14 3.66 14 4 C8.34605369 4.34615998 4.96993194 3.43425238 0 1 C0 0.67 0 0.34 0 0 Z " fill="#652AA6" transform="translate(342,165)"/>
<path d="M0 0 C0.66 0.33 1.32 0.66 2 1 C1.34 2.65 0.68 4.3 0 6 C0.66 6 1.32 6 2 6 C1.34 7.32 0.68 8.64 0 10 C-0.99 9.67 -1.98 9.34 -3 9 C-2.01 6.03 -1.02 3.06 0 0 Z " fill="#5E21B6" transform="translate(286,160)"/>
<path d="M0 0 C0.66 0 1.32 0 2 0 C2 0.66 2 1.32 2 2 C1.34 2 0.68 2 0 2 C0.33 2.99 0.66 3.98 1 5 C0.34 5 -0.32 5 -1 5 C-1.12375 5.61875 -1.2475 6.2375 -1.375 6.875 C-2 9 -2 9 -4 11 C-3.25531915 3.25531915 -3.25531915 3.25531915 0 0 Z " fill="#7C31DA" transform="translate(145,125)"/>
<path d="M0 0 C2 1.125 2 1.125 4 3 C4.25 6.1875 4.25 6.1875 4 9 C3.01 9.495 3.01 9.495 2 10 C1.66666667 8.66666667 1.33333333 7.33333333 1 6 C0.814375 5.29875 0.62875 4.5975 0.4375 3.875 C0 2 0 2 0 0 Z " fill="#C569EA" transform="translate(61,13)"/>
<path d="M0 0 C0.99 0 1.98 0 3 0 C1.55746343 3.36591866 -0.33264727 5.51047079 -3 8 C-3.66 7.67 -4.32 7.34 -5 7 C-4.34 5.68 -3.68 4.36 -3 3 C-2.01 3 -1.02 3 0 3 C0 2.01 0 1.02 0 0 Z " fill="#5A23A2" transform="translate(158,199)"/>
<path d="M0 0 C4.67692308 1.47692308 4.67692308 1.47692308 6.3125 4.125 C6.539375 4.74375 6.76625 5.3625 7 6 C4.03 5.505 4.03 5.505 1 5 C0.67 3.35 0.34 1.7 0 0 Z " fill="#602997" transform="translate(398,139)"/>
<path d="M0 0 C4.12751449 0.60698743 7.3321148 2.03810791 11 4 C9.4375 4.75 9.4375 4.75 7 5 C4.49713591 3.86915563 2.32992278 2.47860484 0 1 C0 0.67 0 0.34 0 0 Z " fill="#3F1371" transform="translate(218,205)"/>
<path d="M0 0 C0.33 0 0.66 0 1 0 C0.56179109 4.55737263 0.14958831 7.57653445 -3 11 C-2.88590407 9.54077307 -2.75834456 8.08259402 -2.625 6.625 C-2.55539063 5.81289062 -2.48578125 5.00078125 -2.4140625 4.1640625 C-2 2 -2 2 0 0 Z " fill="#772DDA" transform="translate(174,165)"/>
<path d="M0 0 C0.99 0 1.98 0 3 0 C3.66 0.66 4.32 1.32 5 2 C4.34 2 3.68 2 3 2 C3.99 3.485 3.99 3.485 5 5 C5 5.99 5 6.98 5 8 C4.01 7.67 3.02 7.34 2 7 C2 5.68 2 4.36 2 3 C1.34 3 0.68 3 0 3 C0 2.01 0 1.02 0 0 Z " fill="#B15EEF" transform="translate(62,110)"/>
<path d="M0 0 C1.39195915 4.17587745 -0.17676781 6.13474776 -2 10 C-2.33 10 -2.66 10 -3 10 C-3 7.36 -3 4.72 -3 2 C-2.01 2 -1.02 2 0 2 C0 1.34 0 0.68 0 0 Z " fill="#582596" transform="translate(296,103)"/>
<path d="M0 0 C2.18975773 3.28463659 2.99806563 6.20696275 4 10 C2.68 9.34 1.36 8.68 0 8 C0 5.36 0 2.72 0 0 Z " fill="#4F279B" transform="translate(455,62)"/>
<path d="M0 0 C0.66 0.33 1.32 0.66 2 1 C0.71034824 2.37562854 -0.62689293 3.70766393 -2 5 C-2.66 5 -3.32 5 -4 5 C-4.33 5.99 -4.66 6.98 -5 8 C-5.33 8 -5.66 8 -6 8 C-6 6.35 -6 4.7 -6 3 C-5.195625 2.690625 -4.39125 2.38125 -3.5625 2.0625 C-1.10919595 1.23664655 -1.10919595 1.23664655 0 0 Z " fill="#582B89" transform="translate(321,60)"/>
<path d="M0 0 C0 2.83967231 -0.40267181 5.23735711 -1 8 C-2.32 8.33 -3.64 8.66 -5 9 C-3.7508258 5.54074837 -2.32472205 2.85306797 0 0 Z " fill="#562C8F" transform="translate(272,50)"/>
<path d="M0 0 C0.99 0 1.98 0 3 0 C3.33 2.31 3.66 4.62 4 7 C3.01 7 2.02 7 1 7 C0.67 4.69 0.34 2.38 0 0 Z " fill="#B564DB" transform="translate(85,56)"/>
<path d="M0 0 C2.32472205 2.85306797 3.7508258 5.54074837 5 9 C4.01 8.67 3.02 8.34 2 8 C2 7.34 2 6.68 2 6 C1.01 6 0.02 6 -1 6 C-0.67 4.02 -0.34 2.04 0 0 Z " fill="#6F3889" transform="translate(79,41)"/>
<path d="M0 0 C2.7972908 2.06756277 3.02692273 3.14440371 3.6875 6.6875 C3.790625 7.780625 3.89375 8.87375 4 10 C3.34 10 2.68 10 2 10 C-0.09350689 6.5980513 -0.17942163 3.94727588 0 0 Z " fill="#C56EEA" transform="translate(118,10)"/>
<path d="M0 0 C3.78611227 0.54087318 5.55400767 2.11722332 8 5 C8 5.66 8 6.32 8 7 C7.01 7 6.02 7 5 7 C3.4375 4.625 3.4375 4.625 2 2 C1.34 1.34 0.68 0.68 0 0 Z " fill="#C16BED" transform="translate(448,196)"/>
<path d="M0 0 C2.875 0.25 2.875 0.25 6 1 C7.375 3.0625 7.375 3.0625 8 5 C4.62496331 3.8141763 2.35277269 2.72426311 0 0 Z " fill="#541E8E" transform="translate(303,193)"/>
<path d="M0 0 C3.36720387 1.39332574 4.9859524 2.9789286 7 6 C4.625 5.8125 4.625 5.8125 2 5 C0.6875 2.4375 0.6875 2.4375 0 0 Z " fill="#8241B6" transform="translate(423,166)"/>
<path d="M0 0 C0.61875 0.165 1.2375 0.33 1.875 0.5 C3.96063386 1.07634644 3.96063386 1.07634644 6 1 C6.33 2.98 6.66 4.96 7 7 C5.83040013 6.02433888 4.66438823 5.044375 3.5 4.0625 C2.8503125 3.51722656 2.200625 2.97195312 1.53125 2.41015625 C1.0259375 1.94480469 0.520625 1.47945312 0 1 C0 0.67 0 0.34 0 0 Z " fill="#5020A4" transform="translate(430,159)"/>
<path d="M0 0 C2.32472205 2.85306797 3.7508258 5.54074837 5 9 C2.525 8.01 2.525 8.01 0 7 C0 4.69 0 2.38 0 0 Z " fill="#6A399F" transform="translate(122,121)"/>
<path d="M0 0 C0.75 1.625 0.75 1.625 1 4 C-0.9375 7.25 -0.9375 7.25 -3 10 C-3.93065133 7.39417629 -4.14917407 6.35801776 -3.0625 3.75 C-2.711875 3.1725 -2.36125 2.595 -2 2 C-1.34 2 -0.68 2 0 2 C0 1.34 0 0.68 0 0 Z " fill="#6227BD" transform="translate(422,115)"/>
<path d="M0 0 C1.875 0.125 1.875 0.125 4 1 C5.25 4.0625 5.25 4.0625 6 7 C5.34 7 4.68 7 4 7 C0 2.52941176 0 2.52941176 0 0 Z " fill="#7B419B" transform="translate(97,78)"/>
<path d="M0 0 C4.875 4.75 4.875 4.75 6 7 C5.01 7 4.02 7 3 7 C3 6.34 3 5.68 3 5 C2.01 4.67 1.02 4.34 0 4 C0 2.68 0 1.36 0 0 Z " fill="#B263DE" transform="translate(444,189)"/>
<path d="M0 0 C0.99 0.33 1.98 0.66 3 1 C3.33 2.98 3.66 4.96 4 7 C3.67 6.01 3.34 5.02 3 4 C2.34 4 1.68 4 1 4 C0.67 4.99 0.34 5.98 0 7 C0 4.69 0 2.38 0 0 Z " fill="#4F1A97" transform="translate(184,145)"/>
<path d="M0 0 C2 2 2 2 2 5 C-0.5 7.1875 -0.5 7.1875 -3 9 C-2.01 6.03 -1.02 3.06 0 0 Z " fill="#4B1C8C" transform="translate(145,120)"/>
<path d="M0 0 C3.0916909 2.52956528 3.90931332 5.22454612 5 9 C4.01 8.67 3.02 8.34 2 8 C1.26953125 6.15234375 1.26953125 6.15234375 0.8125 3.9375 C0.65394531 3.20402344 0.49539062 2.47054687 0.33203125 1.71484375 C0.22246094 1.14894531 0.11289063 0.58304687 0 0 Z " fill="#40147D" transform="translate(228,116)"/>
<path d="M0 0 C2.50037734 2.17424117 3.43628586 3.73045798 4 7 C2.68 6.67 1.36 6.34 0 6 C0 4.02 0 2.04 0 0 Z " fill="#83439F" transform="translate(94,69)"/>
<path d="M0 0 C0.99 0 1.98 0 3 0 C4.35439668 2.70879335 4.06501451 5.00933268 4 8 C1.84622436 5.37801226 0.59927826 3.35595828 0 0 Z " fill="#C067E2" transform="translate(133,44)"/>
<path d="M0 0 C1.98 0 3.96 0 6 0 C2.57653445 3.14958831 -0.44262737 3.56179109 -5 4 C-4.34 3.34 -3.68 2.68 -3 2 C-2.01 2 -1.02 2 0 2 C0 1.34 0 0.68 0 0 Z " fill="#6939A0" transform="translate(344,46)"/>
<path d="M0 0 C1.65 1.65 3.3 3.3 5 5 C4.01 5.33 3.02 5.66 2 6 C1.34 5.67 0.68 5.34 0 5 C0 3.35 0 1.7 0 0 Z " fill="#A55DC3" transform="translate(460,205)"/>
<path d="M0 0 C4.31392226 0.4793247 6.16569547 1.7457985 9 5 C2.25 3.125 2.25 3.125 0 2 C0 1.34 0 0.68 0 0 Z " fill="#7D32C7" transform="translate(320,200)"/>
<path d="M0 0 C0.66 0 1.32 0 2 0 C2.33 2.31 2.66 4.62 3 7 C2.01 7.495 2.01 7.495 1 8 C0.67 5.36 0.34 2.72 0 0 Z " fill="#7827C6" transform="translate(264,170)"/>
<path d="M0 0 C-0.33 1.32 -0.66 2.64 -1 4 C-1.99 4 -2.98 4 -4 4 C-4.33 3.01 -4.66 2.02 -5 1 C-3 0 -3 0 0 0 Z " fill="#471F91" transform="translate(444,167)"/>
<path d="M0 0 C1.32 0.33 2.64 0.66 4 1 C4 1.66 4 2.32 4 3 C2.02 3.33 0.04 3.66 -2 4 C-2.33 3.34 -2.66 2.68 -3 2 C-2.01 2 -1.02 2 0 2 C0 1.34 0 0.68 0 0 Z " fill="#702DE2" transform="translate(440,164)"/>
<path d="M0 0 C2.32472205 2.85306797 3.7508258 5.54074837 5 9 C3.0625 8.4375 3.0625 8.4375 1 7 C0.25 3.375 0.25 3.375 0 0 Z " fill="#37106D" transform="translate(306,133)"/>
<path d="M0 0 C1.0326802 2.78823655 1.04509293 3.8677274 0.0625 6.75 C-0.288125 7.4925 -0.63875 8.235 -1 9 C-1.33 9 -1.66 9 -2 9 C-2 6.36 -2 3.72 -2 1 C-1.34 0.67 -0.68 0.34 0 0 Z " fill="#4D229A" transform="translate(461,132)"/>
<path d="M0 0 C1 3 1 3 0.25 5.625 C-1 8 -1 8 -4 9 C-2.80100302 5.9168649 -1.52299523 2.93720508 0 0 Z " fill="#722ED0" transform="translate(150,113)"/>
<path d="M0 0 C1.33332095 2.6666419 0.67102033 4.16680303 0 7 C-0.66 7 -1.32 7 -2 7 C-2.33 7.99 -2.66 8.98 -3 10 C-3.33 9.34 -3.66 8.68 -4 8 C-3.22265625 6.0546875 -3.22265625 6.0546875 -2.0625 3.875 C-1.49208984 2.78832031 -1.49208984 2.78832031 -0.91015625 1.6796875 C-0.60980469 1.12539062 -0.30945313 0.57109375 0 0 Z " fill="#4E2382" transform="translate(262,67)"/>
<path d="M0 0 C2.99324263 1.0975223 3.84610901 1.67682892 5.25 4.625 C5.4975 5.40875 5.745 6.1925 6 7 C5.01 7 4.02 7 3 7 C2.01 4.69 1.02 2.38 0 0 Z " fill="#6D3B86" transform="translate(168,8)"/>
</svg>
